<?xml version="1.0" encoding="UTF-8" standalone="no"?>
<svg
   xmlns:dc="http://purl.org/dc/elements/1.1/"
   xmlns:cc="http://creativecommons.org/ns#"
   xmlns:rdf="http://www.w3.org/1999/02/22-rdf-syntax-ns#"
   xmlns:svg="http://www.w3.org/2000/svg"
   xmlns="http://www.w3.org/2000/svg"
   xmlns:sodipodi="http://sodipodi.sourceforge.net/DTD/sodipodi-0.dtd"
   xmlns:inkscape="http://www.inkscape.org/namespaces/inkscape"
   width="25mm"
   height="25mm"
   viewBox="0 0 25 25"
   version="1.1"
   id="svg65"
   inkscape:version="1.0.2-2 (e86c870879, 2021-01-15)"
   sodipodi:docname="appleYellow.svg">
  <defs
     id="defs59" />
  <sodipodi:namedview
     id="base"
     pagecolor="#ffffff"
     bordercolor="#666666"
     borderopacity="1.0"
     inkscape:pageopacity="0.0"
     inkscape:pageshadow="2"
     inkscape:zoom="3.959798"
     inkscape:cx="33.808976"
     inkscape:cy="23.969286"
     inkscape:document-units="mm"
     inkscape:current-layer="layer1"
     inkscape:document-rotation="0"
     showgrid="false"
     inkscape:window-width="1267"
     inkscape:window-height="1040"
     inkscape:window-x="104"
     inkscape:window-y="0"
     inkscape:window-maximized="0" />
  <metadata
     id="metadata62">
    <rdf:RDF>
      <cc:Work
         rdf:about="">
        <dc:format>image/svg+xml</dc:format>
        <dc:type
           rdf:resource="http://purl.org/dc/dcmitype/StillImage" />
        <dc:title></dc:title>
      </cc:Work>
    </rdf:RDF>
  </metadata>
  <g
     inkscape:label="Layer 1"
     inkscape:groupmode="layer"
     id="layer1">
    <g
       id="g3375"
       transform="matrix(0.12645621,-0.16351509,0.16714,0.12371257,-80.544493,28.334902)">
      <path
         id="path3384"
         style="fill:#3c6000;fill-rule:evenodd"
         d="m 346.92,244.6 c -3.98,0.08 -8.63,3.2 -7.93,7.51 0.77,2.42 3.71,1.47 5.57,1.72 2.33,0.6 3.02,3.48 1.9,5.37 -0.35,2.09 2.08,3.92 4.02,2.9 3.97,-0.39 8.91,-1.71 10.19,-5.93 1.69,-5 -2.81,-10.07 -7.73,-10.94 -1.95,-0.57 -3.99,-0.7 -6.02,-0.63 z" />
      <path
         id="path3271"
         style="fill:#8d9d02;fill-rule:evenodd"
         d="m 340.69,250.97 c 3.37,-1.09 9.87,1.1 7.34,8.36 3.84,-0.66 8.61,-0.92 9.37,-4.81 2.06,-8.86 -16.79,-11.14 -16.71,-3.55 z" />
      <path
         id="path3335"
         style="fill:#f6ff00;fill-rule:evenodd"
         d="m 309.69,257.39 c -10.59,0.11 -21.9,4.06 -28.03,13.14 -7.8,12.1 -8.71,27.64 -5.24,41.37 2.51,8.8 7.66,16.86 8.31,26.17 0.88,7.12 1.62,15.28 7.22,20.43 6.19,5.46 15.25,5.41 22.88,3.73 3.86,-0.64 7.57,-2.41 11.48,-2.52 4.76,0.3 9.11,2.73 13.89,3.04 6.63,0.92 14.3,0.87 19.7,-3.59 6.15,-5.27 7.55,-13.79 8.63,-21.43 0.89,-6.34 2.3,-12.64 5.19,-18.38 4.38,-10.5 7.88,-22.14 5.31,-33.57 -1.69,-9.88 -6.61,-20.11 -15.97,-24.72 -9.08,-4.56 -19.61,-3.34 -29.41,-2.71 -6.69,0.38 -13.38,-0.19 -20,-0.89 -1.32,-0.06 -2.64,-0.1 -3.96,-0.07 z" />
      <path
         id="path2384"
         style="fill:#fff94d;fill-rule:evenodd"
         d="m 306.28,356.96 c 9.79,0.27 14.74,-3.48 20.27,-3.34 5.88,0.14 7.13,3.31 20.27,3.34 13.86,0.03 15.35,-11.98 17.24,-25.71 1.77,-12.9 13.39,-25.8 9.38,-45.08 -2.89,-13.87 -9.47,-20.67 -19.36,-22.69 -8.46,-1.72 -17.48,0 -25.41,0 -7.5,0 -17.31,-2.28 -25.42,-0.3 -6.63,1.62 -20.92,4.63 -22.99,29.95 -1.52,18.58 6.83,27 8.78,37.51 2.4,13.01 0.8,25.86 17.24,26.32 z" />
      <path
         id="path3376"
         style="fill:#3c6000;fill-rule:evenodd"
         d="m 343.4,240.33 c -7.29,-0.12 -15.24,3.92 -17.54,11.2 -1,4.23 1.47,8.74 -0.54,12.82 -1,1.85 -2.1,5.06 0.39,6.28 2.61,1.27 5.39,-0.9 6.33,-3.3 3.1,-4.94 5.14,-11.43 10.92,-13.9 3.55,-1.79 8.76,-2.5 11.65,0.87 0.8,1.54 2.01,4.31 4.26,3.36 2.7,-1.75 2.69,-5.58 2.19,-8.4 -1.65,-5.7 -7.9,-8.26 -13.36,-8.73 -1.42,-0.17 -2.86,-0.24 -4.3,-0.2 z" />
      <path
         id="path3269"
         style="fill:#8dc100;fill-rule:evenodd"
         d="m 325.75,267.43 c 0,0 3.33,-5.58 1.77,-12.4 -1.51,-6.62 6.32,-11.88 12.15,-12.66 9.55,-1.28 22.28,2.28 17.73,12.66 -2.79,-7.6 -11.38,-7.48 -18.49,-3.04 -6.74,4.2 -10.09,19.33 -13.16,15.44 z" />
      <path
         id="path3392"
         style="fill:#652704;fill-rule:evenodd"
         d="m 315.77,249.1 c -1.98,0.75 -5.13,1.94 -4.69,4.59 0.86,2.41 3.91,2.51 5.61,4.11 4.33,3.01 6.38,8.03 8.03,12.8 0.52,1.79 2.96,3.59 4.48,1.79 1.69,-2.19 -0.37,-4.87 -0.48,-7.25 -1.36,-6.47 -4.84,-13.35 -11.31,-15.92 -0.53,-0.15 -1.09,-0.2 -1.64,-0.12 z" />
      <path
         id="path3267"
         style="fill:#7a4b00;fill-rule:evenodd"
         d="m 313.55,252.3 c -0.96,1.34 1.64,1.76 2.36,2.6 4.19,2.67 7.39,6.9 8.5,11.8 0.7,1.85 1,4.02 2.25,5.54 1.63,-0.45 0.01,-2.85 0.2,-4.1 -0.77,-5.94 -2.39,-12.5 -7.59,-16.13 -1.09,-0.92 -2.46,-1.74 -3.76,-0.61 -0.65,0.3 -1.31,0.6 -1.96,0.9 z" />
      <path
         id="path3285"
         style="fill:#ffa700;fill-opacity:0.33333"
         d="m 309.6,268.98 c 0.96,5.53 9.62,9.29 19.78,8.46 10.16,-0.84 18.09,-5.96 18.13,-11.58 -3.75,4.16 -10.52,7.25 -18.43,7.9 -7.91,0.65 -15.1,-1.29 -19.48,-4.78 z" />
      <path
         id="path3343"
         style="fill:#ffa700;fill-opacity:0.335;fill-rule:evenodd"
         d="m 280.09,297.06 c -0.14,15.9 7.14,23.83 8.94,33.56 2.41,13.01 0.81,25.89 17.25,26.35 9.79,0.27 14.75,-3.48 20.28,-3.35 5.88,0.15 7.12,3.32 20.25,3.35 13.07,0.03 15.14,-10.68 16.91,-23.41 -7.09,2.6 -14.74,4.06 -22.72,4.06 -27.41,0 -50.94,-16.75 -60.91,-40.56 z" />
    </g>
  </g>
</svg>
