<?xml version="1.0" encoding="UTF-8" standalone="no"?>
<svg
   xmlns:dc="http://purl.org/dc/elements/1.1/"
   xmlns:cc="http://creativecommons.org/ns#"
   xmlns:rdf="http://www.w3.org/1999/02/22-rdf-syntax-ns#"
   xmlns:svg="http://www.w3.org/2000/svg"
   xmlns="http://www.w3.org/2000/svg"
   xmlns:xlink="http://www.w3.org/1999/xlink"
   xmlns:sodipodi="http://sodipodi.sourceforge.net/DTD/sodipodi-0.dtd"
   xmlns:inkscape="http://www.inkscape.org/namespaces/inkscape"
   id="svg2"
   xml:space="preserve"
   viewBox="0 0 724.99997 199.99999"
   version="1.1"
   inkscape:version="1.0.2-2 (e86c870879, 2021-01-15)"
   sodipodi:docname="cutting-board.svg"
   width="725"
   height="200"><metadata
   id="metadata77"><rdf:RDF><cc:Work
       rdf:about=""><dc:format>image/svg+xml</dc:format><dc:type
         rdf:resource="http://purl.org/dc/dcmitype/StillImage" /><dc:title></dc:title></cc:Work></rdf:RDF></metadata>
  <sodipodi:namedview
   pagecolor="#ffffff"
   bordercolor="#666666"
   borderopacity="1"
   objecttolerance="10"
   gridtolerance="10"
   guidetolerance="10"
   inkscape:pageopacity="0"
   inkscape:pageshadow="2"
   inkscape:window-width="1920"
   inkscape:window-height="1017"
   id="namedview4517"
   showgrid="false"
   inkscape:zoom="1"
   inkscape:cx="358.6754"
   inkscape:cy="137.06895"
   inkscape:window-x="-8"
   inkscape:window-y="-8"
   inkscape:window-maximized="1"
   inkscape:current-layer="g12"
   fit-margin-top="0"
   fit-margin-left="0"
   fit-margin-right="0"
   fit-margin-bottom="0"
   inkscape:document-rotation="0" />
  <defs
   id="defs6">
    <linearGradient
   id="linearGradient34"
   y2="-8.9209003"
   gradientUnits="userSpaceOnUse"
   x2="63.886002"
   gradientTransform="matrix(0.66224,-0.38112,-0.1216,-0.87472,9.88,25.04)"
   y1="-8.9209003"
   x1="58.903999">
      <stop
   id="stop36"
   style="stop-color:#967c38"
   offset="0" />
      <stop
   id="stop38"
   style="stop-color:#d6ac59"
   offset="1" />
    </linearGradient>
    <clipPath
   id="clipPath46">
      <path
   id="path48"
   d="m 0,3.76 h 55 v 12 H 0 Z"
   inkscape:connector-curvature="0" />
    </clipPath>
    <mask
   id="mask50">
      <g
   id="g52">
        <g
   id="g54"
   clip-path="url(#clipPath46)">
          <path
   id="path56"
   style="fill:#000000;fill-opacity:0.0898"
   d="m 0,3.76 h 55 v 12 H 0 Z"
   inkscape:connector-curvature="0" />
        </g>
      </g>
    </mask>
    <clipPath
   id="clipPath62">
      <path
   id="path64"
   d="m 0,3.76 h 55 v 12 H 0 Z"
   inkscape:connector-curvature="0" />
    </clipPath>
    <clipPath
   id="clipPath66">
      <path
   id="path68"
   d="M 0,4 H 55 V 16 H 0 Z"
   inkscape:connector-curvature="0" />
    </clipPath>
    <linearGradient
   id="linearGradient186"
   y2="85.795998"
   gradientUnits="userSpaceOnUse"
   x2="38.598999"
   gradientTransform="matrix(0.8,0,0,-0.8,-13.56,80)"
   y1="84.622002"
   x1="58.313">
      <stop
   id="stop188"
   style="stop-color:#969696"
   offset="0" />
      <stop
   id="stop190"
   style="stop-color:#d6d6d6"
   offset="1" />
    </linearGradient>
    <linearGradient
   id="linearGradient5932"
   inkscape:collect="always">
      <stop
   id="stop5934"
   offset="0"
   style="stop-color:#b69f9f;stop-opacity:1;" />
      <stop
   id="stop5936"
   offset="1"
   style="stop-color:#b69f9f;stop-opacity:0;" />
    </linearGradient>
    <linearGradient
   id="linearGradient5652"
   inkscape:collect="always">
      <stop
   id="stop5654"
   offset="0"
   style="stop-color:#668000;stop-opacity:1;" />
      <stop
   id="stop5656"
   offset="1"
   style="stop-color:#668000;stop-opacity:0;" />
    </linearGradient>
    <linearGradient
   id="linearGradient5083"
   inkscape:collect="always">
      <stop
   id="stop5085"
   offset="0"
   style="stop-color:#806600;stop-opacity:1;" />
      <stop
   id="stop5087"
   offset="1"
   style="stop-color:#806600;stop-opacity:0;" />
    </linearGradient>
    <linearGradient
   id="linearGradient4789"
   inkscape:collect="always">
      <stop
   id="stop4791"
   offset="0"
   style="stop-color:#c06f00;stop-opacity:1;" />
      <stop
   id="stop4793"
   offset="1"
   style="stop-color:#c06f00;stop-opacity:0;" />
    </linearGradient>
    <linearGradient
   id="linearGradient4261"
   inkscape:collect="always">
      <stop
   id="stop4263"
   offset="0"
   style="stop-color:#aa0000;stop-opacity:1;" />
      <stop
   id="stop4265"
   offset="1"
   style="stop-color:#aa0000;stop-opacity:0;" />
    </linearGradient>
    <linearGradient
   gradientTransform="matrix(0.09847407,0,0,0.0785752,162.21379,-29.047917)"
   gradientUnits="userSpaceOnUse"
   y2="764.65363"
   x2="204.14508"
   y1="659.60114"
   x1="186.92067"
   id="linearGradient4267"
   xlink:href="#linearGradient4261"
   inkscape:collect="always" />
    <linearGradient
   gradientUnits="userSpaceOnUse"
   y2="764.65363"
   x2="204.14508"
   y1="659.60114"
   x1="186.92067"
   id="linearGradient4267-5"
   xlink:href="#linearGradient4261"
   inkscape:collect="always"
   gradientTransform="translate(-103.30078,-693.28125)" />
    <linearGradient
   gradientUnits="userSpaceOnUse"
   y2="487.32663"
   x2="459.81625"
   y1="365.61285"
   x1="360.34802"
   id="linearGradient4795-6"
   xlink:href="#linearGradient4789"
   inkscape:collect="always"
   gradientTransform="translate(-360.86328,-321.19922)" />
    <linearGradient
   gradientUnits="userSpaceOnUse"
   y2="541.40656"
   x2="739.1676"
   y1="308.46695"
   x1="612.53369"
   id="linearGradient5089-1"
   xlink:href="#linearGradient5083"
   inkscape:collect="always"
   gradientTransform="translate(-578.75391,-348.73828)" />
    <linearGradient
   gradientUnits="userSpaceOnUse"
   y2="207.60864"
   x2="48.758923"
   y1="168.67709"
   x1="31.372015"
   id="linearGradient5239-8"
   xlink:href="#linearGradient5652"
   inkscape:collect="always"
   gradientTransform="matrix(3.7795274,0,0,3.7795274,-82.316977,-654.46671)" />
    <linearGradient
   gradientTransform="matrix(1.558051,0.64427933,-0.64427933,1.558051,-373.99109,-1771.8175)"
   gradientUnits="userSpaceOnUse"
   y2="909.76215"
   x2="637.50421"
   y1="909.41766"
   x1="624.30536"
   id="linearGradient5938-9"
   xlink:href="#linearGradient5932"
   inkscape:collect="always" />
    <linearGradient
   inkscape:collect="always"
   xlink:href="#linearGradient4261"
   id="linearGradient6741"
   gradientUnits="userSpaceOnUse"
   gradientTransform="matrix(0,0.04002099,-0.03272358,0,298.22649,-10.91128)"
   x1="186.92067"
   y1="659.60114"
   x2="204.14508"
   y2="764.65363" />
    <linearGradient
   inkscape:collect="always"
   xlink:href="#linearGradient4261"
   id="linearGradient6791"
   gradientUnits="userSpaceOnUse"
   gradientTransform="matrix(0.09847407,0,0,0.0785752,162.21379,-29.047917)"
   x1="186.92067"
   y1="659.60114"
   x2="204.14508"
   y2="764.65363" />
    <linearGradient
   inkscape:collect="always"
   xlink:href="#linearGradient4261"
   id="linearGradient6905"
   gradientUnits="userSpaceOnUse"
   gradientTransform="matrix(0.04101071,0,0,0.03193387,260.42725,-14.546569)"
   x1="186.92067"
   y1="659.60114"
   x2="204.14508"
   y2="764.65363" />
    <linearGradient
   inkscape:collect="always"
   xlink:href="#linearGradient4261"
   id="linearGradient6907"
   gradientUnits="userSpaceOnUse"
   gradientTransform="matrix(0.04101071,0,0,0.03193387,260.42725,-14.546569)"
   x1="186.92067"
   y1="659.60114"
   x2="204.14508"
   y2="764.65363" />
  </defs>
  <g
   id="g10"
   transform="matrix(1.25,0,0,-1.25,324.6504,164.65607)">
    <g
   id="g12">
      <g
   id="g7116"
   transform="matrix(10.54135,0,0,10.54135,-257.32032,-28.25407)">
        <path
   inkscape:connector-curvature="0"
   d="m 47.48,8.838 c -0.32,0.082 -0.652,0.07 -1,-0.039 h -0.199 c -0.054,0 -0.093,-0.027 -0.121,-0.078 l -2.519,-3.52 -0.2,-0.203 C 42.773,4.467 41.828,4.135 40.602,3.998 40.441,3.975 40.281,3.959 40.121,3.959 H 35.199 L 22.961,4.041 17.68,4.08 3.199,4.201 2.68,4.24 C 1,4.428 0.133,4.733 0.078,5.158 0.055,5.291 0.105,5.428 0.238,5.561 l 8.442,8 c 0.988,0.586 2.32,1.012 4,1.277 0.398,0.055 0.828,0.094 1.281,0.121 L 46.922,14.6 c 1.437,-0.106 2.211,-0.414 2.316,-0.918 0.028,-0.109 0.028,-0.242 0,-0.402 -0.023,-0.079 -0.066,-0.172 -0.117,-0.282 L 47.84,10.721 c 0.453,-0.215 0.879,-0.148 1.281,0.199 0.027,0.028 0.067,0.051 0.117,0.078 0.43,0.321 1.067,0.481 1.922,0.481 1.094,0 1.895,-0.184 2.399,-0.559 0.535,-0.398 0.8,-1.055 0.8,-1.961 V 8.799 C 54.332,8.483 54.094,8.174 53.641,7.881 53.188,7.615 52.762,7.44 52.359,7.362 51.961,7.28 51.641,7.24 51.398,7.24 c -0.265,0.028 -0.597,0.094 -1,0.2 -0.425,0.136 -0.796,0.254 -1.117,0.363 -0.32,0.16 -0.719,0.414 -1.203,0.758 -0.211,0.105 -0.41,0.199 -0.598,0.277 z"
   style="fill:#d9b96a;fill-rule:evenodd"
   id="path14" />
        <path
   inkscape:connector-curvature="0"
   d="M 0.078,2.362 C 0.828,1.959 1.215,1.76 1.238,1.76 1.668,1.6 2.535,1.522 3.84,1.522 c 0.238,0 3.332,0.426 9.281,1.277 4.211,0.586 7.492,1 9.84,1.242 L 35.199,3.959 c 0.535,-0.293 1.321,-0.812 2.36,-1.558 1.253,-0.907 2.093,-1.696 2.519,-2.36 H 36.16 C 34.961,0.998 33.441,1.826 31.602,2.522 30,3.108 28.895,3.401 28.281,3.401 26.707,3.401 23.801,3.014 19.559,2.24 16.309,1.655 12.988,0.959 9.602,0.162 L 1.238,0.201 c -0.773,0.133 -1.16,0.532 -1.16,1.2 z M 54.359,8.799 54.441,5.28 C 54.387,5.229 54.359,5.162 54.359,5.08 54.012,4.998 53.613,4.959 53.16,4.959 c -1.226,0 -2.453,0.254 -3.68,0.762 -1.441,0.586 -2.16,1.305 -2.16,2.16 l 0.16,0.957 c 0.184,-0.078 0.387,-0.172 0.598,-0.277 0.481,-0.348 0.883,-0.602 1.199,-0.762 0.321,-0.105 0.696,-0.226 1.121,-0.359 0.403,-0.106 0.735,-0.172 1,-0.2 0.243,0 0.563,0.04 0.961,0.122 0.399,0.078 0.829,0.25 1.282,0.519 0.453,0.293 0.691,0.598 0.718,0.918 z M 0.078,4.319 V 5.158 C 0.133,4.733 1,4.428 2.68,4.24 L 3.199,4.201 17.68,4.08 13.52,3.561 C 9.465,3.08 6.785,2.842 5.48,2.842 3.535,2.815 2.281,2.881 1.719,3.041 1.48,3.123 1.172,3.35 0.801,3.721 0.48,4.041 0.238,4.24 0.078,4.319 Z M 40.602,3.998 V 1.639 c -0.508,0.773 -1.176,1.547 -2,2.32 h 1.519 c 0.16,0 0.32,0.016 0.481,0.039 z M 32.641,0.041 14.801,0.158 c 6.961,1.364 10.664,1.977 11.121,1.84 0.023,0.028 0.039,0.055 0.039,0.082 V 1.998 c 1.867,-0.023 4.094,-0.679 6.68,-1.957 z"
   style="fill:#a18544;fill-rule:evenodd"
   id="path16" />
        <path
   inkscape:connector-curvature="0"
   d="m 49.238,13.28 v -2.282 c -0.05,-0.023 -0.09,-0.05 -0.117,-0.078 -0.402,-0.347 -0.828,-0.414 -1.281,-0.199 l 1.281,2.277 c 0.051,0.11 0.094,0.203 0.117,0.282 z M 43.48,0.682 l -0.039,4.316 0.2,0.203 2.519,3.52 c 0.028,0.051 0.067,0.078 0.117,0.078 h 0.203 c 0.348,0.109 0.68,0.121 1,0.039 L 47.32,7.881 c 0,-0.855 0.719,-1.574 2.16,-2.16 1.227,-0.508 2.454,-0.762 3.68,-0.762 0.453,0 0.852,0.043 1.199,0.121 C 54.199,4.705 54.039,4.455 53.879,4.323 53.691,4.162 53.094,3.975 52.078,3.76 51.066,3.573 50.227,3.627 49.559,3.92 48.867,4.213 48.32,4.561 47.918,4.959 47.492,5.412 47.027,5.455 46.52,5.08 Z"
   style="fill:#826a31;fill-rule:evenodd"
   id="path18" />
        <path
   inkscape:connector-curvature="0"
   d="M 0.078,4.319 C 0.238,4.24 0.48,4.037 0.801,3.721 1.172,3.346 1.48,3.119 1.719,3.037 2.281,2.881 3.535,2.815 5.48,2.838 c 1.305,0 3.985,0.242 8.04,0.723 L 17.68,4.08 22.961,4.037 C 20.613,3.799 17.332,3.385 13.121,2.799 7.172,1.948 4.078,1.518 3.84,1.518 2.535,1.518 1.668,1.6 1.238,1.76 c -0.023,0 -0.41,0.199 -1.16,0.598 z m 40,-4.278 c -0.426,0.664 -1.266,1.453 -2.516,2.36 -1.042,0.746 -1.828,1.265 -2.363,1.558 h 3.403 c 0.824,-0.773 1.492,-1.547 2,-2.32 v 2.359 c 1.226,0.137 2.171,0.469 2.839,1 L 43.48,0.682 c -0.453,-0.43 -1.148,-0.656 -2.078,-0.684 -0.269,0 -0.535,0.016 -0.8,0.043 z m -3.918,0 h -3.519 c -2.586,1.282 -4.813,1.934 -6.68,1.957 V 2.08 c 0,-0.027 -0.016,-0.054 -0.039,-0.082 -0.457,0.137 -4.16,-0.476 -11.121,-1.84 H 9.602 c 3.386,0.801 6.703,1.497 9.957,2.082 4.242,0.774 7.148,1.161 8.722,1.161 0.614,0 1.719,-0.293 3.321,-0.879 1.839,-0.696 3.359,-1.524 4.558,-2.481 z"
   style="fill:#8a723a;fill-rule:evenodd"
   id="path20" />
        <path
   inkscape:connector-curvature="0"
   d="m 11.84,12.401 c 2.398,-0.082 4.265,-0.266 5.601,-0.563 1.414,-0.398 3.934,-0.613 7.559,-0.637 1.945,-0.027 3.734,-0.015 5.359,0.039 l 5.282,0.282 c 1.812,0.133 4.105,0.238 6.879,0.316 1.867,0.082 3.894,0.149 6.082,0.203 l -0.2,-0.359 C 46.934,11.6 44.973,11.506 42.52,11.401 40.469,11.24 37.906,11.053 34.84,10.838 29.934,10.494 26.48,10.307 24.48,10.28 c -4.453,0 -8.894,0.601 -13.32,1.8 -0.828,0.243 -2.082,0.321 -3.762,0.243 l 0.204,0.156 c 1.464,0.054 2.878,0.027 4.238,-0.078 z M 0,5.08 H 0.121 C 2.359,5.162 4.586,4.987 6.801,4.561 7.68,4.401 8.492,4.252 9.238,4.119 L 2.68,4.24 C 1.641,4.346 0.922,4.494 0.52,4.682 0.441,4.733 0.387,4.772 0.359,4.799 0.254,4.854 0.16,4.908 0.078,4.959 0.055,4.987 0.027,5.026 0,5.08 Z M 0.559,5.838 1.398,6.639 C 3,6.666 4.52,6.573 5.961,6.362 7,6.174 8.602,5.893 10.762,5.522 13.055,5.147 16.188,5.026 20.16,5.158 23.227,5.24 27.188,5.506 32.039,5.959 35.746,6.28 39.238,6.494 42.52,6.6 c 0.718,0.027 1.441,0.039 2.16,0.039 L 44.039,5.76 C 43.531,5.76 43.027,5.748 42.52,5.721 40.066,5.612 37.094,5.451 33.602,5.24 27.789,4.865 23.496,4.627 20.723,4.522 16.242,4.252 12.895,4.291 10.68,4.639 8.52,5.174 6.773,5.573 5.441,5.838 4.375,6.026 2.746,6.026 0.559,5.838 Z M 53.641,9.522 C 53.855,9.494 54.094,9.467 54.359,9.44 V 8.92 C 50.199,9.08 46.762,9.147 44.039,9.119 43.586,9.119 43.078,9.104 42.52,9.08 40.012,8.971 36.305,8.733 31.402,8.358 25.961,7.905 22.121,7.627 19.879,7.518 17.082,7.44 14.348,7.612 11.68,8.037 10.668,8.225 9.199,8.545 7.281,8.998 6.746,9.131 5.641,9.17 3.961,9.119 l 0.68,0.598 c 3.039,0.082 5.281,-0.211 6.718,-0.879 1.067,-0.508 3.696,-0.734 7.883,-0.68 2.797,0.051 6.746,0.227 11.84,0.52 6.398,0.426 9.68,0.625 9.84,0.598 0.558,0.027 1.094,0.07 1.598,0.121 4.535,0.191 8.242,0.23 11.121,0.125 z M 54.121,8.28 C 54.039,8.174 53.934,8.08 53.801,7.998 53,7.975 52.16,7.92 51.281,7.838 50.719,7.815 50.238,7.748 49.84,7.639 c -0.215,0.055 -0.399,0.109 -0.559,0.16 -0.187,0.109 -0.402,0.227 -0.64,0.359 1.437,0.082 3.265,0.122 5.48,0.122 z m -1.441,3 c 0.293,-0.051 0.547,-0.145 0.761,-0.282 -2.082,-0.293 -3.507,-0.547 -4.281,-0.758 -1.441,0.106 -3.652,0.122 -6.64,0.04 -2,-0.106 -4.215,-0.239 -6.641,-0.399 C 30.492,9.561 26.785,9.346 24.758,9.24 20.945,9.186 17.918,9.28 15.68,9.522 13.812,9.705 11.961,10.069 10.121,10.6 8.973,10.893 7.625,11.069 6.078,11.119 l 0.442,0.403 c 2.265,0.027 4.375,-0.188 6.32,-0.641 2.238,-0.586 5.238,-0.933 9,-1.043 4.32,-0.105 9.066,0.094 14.238,0.602 2.375,0.265 4.52,0.453 6.442,0.558 2.027,0.11 3.894,0.176 5.601,0.203 l -0.281,-0.48 c 0.453,-0.215 0.879,-0.148 1.281,0.199 0.024,0.028 0.067,0.051 0.117,0.078 v 0.203 h 0.36 c 0.191,0 1.214,0.024 3.082,0.079 z m -34.481,3.48 5.442,-0.121 -3.121,-0.277 c -3.227,-0.215 -5.547,-0.364 -6.961,-0.442 -1.172,-0.027 -2.559,-0.027 -4.161,0 0.348,0.16 0.747,0.305 1.204,0.442 0.718,0 1.703,0.039 2.957,0.117 0.722,0 2.269,0.094 4.64,0.281 z m 0.442,-1.762 c 0.879,0.27 1.945,0.496 3.199,0.684 1.332,0.156 2.387,0.238 3.16,0.238 1.305,0.055 2.52,-0.082 3.641,-0.398 1.597,-0.43 2.371,-0.789 2.32,-1.082 -0.16,-0.293 -1.215,-0.481 -3.16,-0.559 -2.028,-0.055 -3.906,-0.016 -5.641,0.117 -1.734,0.082 -2.574,0.215 -2.519,0.403 0.132,0.214 0.879,0.425 2.238,0.64 1.441,0.239 2.629,0.321 3.562,0.239 1.09,-0.161 1.774,-0.282 2.039,-0.36 0.426,-0.105 0.309,-0.215 -0.359,-0.32 -1.016,-0.211 -1.973,-0.227 -2.883,-0.039 0.907,-0.133 1.403,-0.094 1.481,0.121 0.136,0.183 -0.078,0.293 -0.641,0.316 -0.558,0 -1.223,-0.05 -2,-0.16 -0.824,-0.133 -1.066,-0.277 -0.719,-0.437 0.243,-0.11 1.039,-0.188 2.403,-0.243 1.625,0.055 2.613,0.094 2.957,0.122 0.613,0.027 0.961,0.132 1.043,0.32 0.211,0.613 -1.453,0.906 -5,0.879 -0.856,-0.028 -2.055,-0.133 -3.602,-0.321 -0.773,-0.105 -1.465,-0.199 -2.078,-0.277 0.078,0.027 0.266,0.067 0.559,0.117 z m 27.64,-8.16 h 0.078 L 46.281,4.76 Z m 2.957,8.844 c 0.028,-0.109 0.028,-0.242 0,-0.402 v -0.321 h -0.117 c -2.453,-0.027 -4.652,0.055 -6.601,0.242 -0.399,0.051 -0.774,0.118 -1.118,0.2 -1.441,0.214 -2.894,0.64 -4.363,1.281 L 44.68,14.6 c 1.308,-0.375 2.816,-0.652 4.519,-0.84 0.028,-0.027 0.039,-0.055 0.039,-0.078 z M 33.762,4.08 C 33.305,4.053 32.867,4.026 32.441,3.998 L 24.32,4.041 c 3.653,0.184 7.918,0.465 12.801,0.84 1.945,0.16 3.746,0.199 5.399,0.117 0.292,0 0.601,-0.011 0.921,-0.039 C 43.094,4.721 42.68,4.506 42.199,4.319 40.012,4.346 37.199,4.268 33.762,4.08 Z M 2.68,7.838 C 4.867,7.787 7.387,7.655 10.238,7.44 11.973,7.307 14.547,7.092 17.961,6.799 20.359,6.666 24.84,6.787 31.398,7.158 c 3.016,0.161 6.723,0.387 11.122,0.68 1.011,0.082 2.054,0.137 3.121,0.16 L 45.16,7.362 C 44.305,7.307 43.426,7.268 42.52,7.24 38.305,7.026 33.41,6.705 27.84,6.28 22.746,5.932 18.891,5.826 16.277,5.959 14.277,6.069 11.879,6.44 9.078,7.08 7.027,7.455 4.719,7.561 2.16,7.401 Z m 5.48,5.203 0.36,0.399 c 2.082,-0.106 4.214,-0.078 6.402,0.082 3.625,0.343 6.183,0.558 7.68,0.64 2.906,0.184 5.089,0.227 6.558,0.118 0.692,-0.133 2.348,-0.465 4.961,-1 2.238,-0.399 4.117,-0.68 5.641,-0.84 0.718,-0.028 1.636,-0.039 2.758,-0.039 1.757,0.027 3.878,0.078 6.359,0.16 l -0.16,-0.321 c -2.293,-0.054 -4.36,-0.105 -6.199,-0.16 -1.68,-0.027 -3.122,-0.015 -4.321,0.039 -2.879,0.188 -5.437,0.629 -7.679,1.321 -2,0.64 -4.508,0.851 -7.52,0.64 C 19.293,13.627 16.426,13.323 14.402,13.162 12.48,12.998 10.398,12.959 8.16,13.041 Z"
   style="fill:#c4a657;fill-rule:evenodd"
   id="path22" />
        <g
   id="g24">
          <g
   id="g26">
            <g
   id="g32">
              <path
   inkscape:connector-curvature="0"
   d="m 52.332,8.721 c -1.187,-0.453 -2.133,-0.32 -2.828,0.398 -0.492,0.5 -0.277,0.989 0.641,1.469 0.921,0.445 1.718,0.438 2.39,-0.027 1.031,-0.766 0.965,-1.379 -0.203,-1.84 z"
   style="fill:url(#linearGradient34);fill-rule:evenodd"
   id="path40" />
            </g>
          </g>
        </g>
        <g
   id="g42">
          <g
   mask="url(#mask50)"
   id="g58">
            <g
   id="g70">
              <g
   clip-path="url(#clipPath62)"
   id="g72">
                <g
   transform="translate(0,-0.24)"
   id="g74">
                  <g
   id="g78">
                    <g
   clip-path="url(#clipPath66)"
   id="g80">
                      <g
   id="g82">
                        <path
   inkscape:connector-curvature="0"
   d="M 49.238,13.527 C 49.215,13.434 49.172,13.34 49.121,13.25 L 47.84,10.973 c 0.234,-0.114 0.461,-0.153 0.68,-0.118 V 8.488 c -0.137,0.09 -0.286,0.192 -0.442,0.301 -0.211,0.125 -0.41,0.215 -0.598,0.277 -0.308,0.09 -0.628,0.082 -0.96,-0.023 v 5.785 h 0.402 c 0.683,-0.043 1.215,-0.137 1.598,-0.277 0.425,-0.156 0.664,-0.375 0.718,-0.653 0.028,-0.093 0.028,-0.214 0,-0.371 z m 2.641,-6.015 v 4.179 c 0.734,-0.07 1.293,-0.25 1.68,-0.535 0.535,-0.402 0.8,-1.051 0.8,-1.949 V 9.02 C 54.332,8.711 54.094,8.418 53.641,8.137 53.188,7.859 52.762,7.672 52.359,7.582 52.184,7.555 52.023,7.531 51.879,7.512 Z m -9.52,7.363 V 4.629 C 41.961,4.473 41.508,4.359 41,4.281 V 14.898 Z M 23.879,4.281 v 10.805 l 6.961,-0.07 V 4.234 Z M 14.762,15.199 V 4.352 L 11,4.375 v 10.359 c 0.516,0.129 1.074,0.239 1.68,0.328 0.398,0.059 0.828,0.106 1.281,0.137 z M 2.68,4.469 C 1,4.652 0.133,4.965 0.078,5.398 0.055,5.52 0.105,5.66 0.238,5.816 L 4.199,9.555 V 4.422 Z"
   style="fill:#ffffff;fill-rule:evenodd"
   id="path84" />
                      </g>
                    </g>
                  </g>
                </g>
              </g>
            </g>
          </g>
        </g>
      </g>
      <g
   id="g6180"
   transform="matrix(3.07328,0,0,-3.07328,-519.93639,128.27777)">
        <g
   id="g7649"
   transform="matrix(0.73857766,0,0,0.67882614,29.078236,11.494855)" />
      </g>
    </g>
  </g>
</svg>
