<?xml version="1.0" encoding="UTF-8" standalone="no"?>
<svg
   xmlns:dc="http://purl.org/dc/elements/1.1/"
   xmlns:cc="http://creativecommons.org/ns#"
   xmlns:rdf="http://www.w3.org/1999/02/22-rdf-syntax-ns#"
   xmlns:svg="http://www.w3.org/2000/svg"
   xmlns="http://www.w3.org/2000/svg"
   xmlns:sodipodi="http://sodipodi.sourceforge.net/DTD/sodipodi-0.dtd"
   xmlns:inkscape="http://www.inkscape.org/namespaces/inkscape"
   width="25mm"
   height="25mm"
   viewBox="0 0 25 25"
   version="1.1"
   id="svg130"
   inkscape:version="1.0.2-2 (e86c870879, 2021-01-15)"
   sodipodi:docname="appleGreen.svg">
  <defs
     id="defs124" />
  <sodipodi:namedview
     id="base"
     pagecolor="#ffffff"
     bordercolor="#666666"
     borderopacity="1.0"
     inkscape:pageopacity="0.0"
     inkscape:pageshadow="2"
     inkscape:zoom="0.35"
     inkscape:cx="400"
     inkscape:cy="560"
     inkscape:document-units="mm"
     inkscape:current-layer="layer1"
     inkscape:document-rotation="0"
     showgrid="false"
     inkscape:window-width="1267"
     inkscape:window-height="1040"
     inkscape:window-x="156"
     inkscape:window-y="0"
     inkscape:window-maximized="0" />
  <metadata
     id="metadata127">
    <rdf:RDF>
      <cc:Work
         rdf:about="">
        <dc:format>image/svg+xml</dc:format>
        <dc:type
           rdf:resource="http://purl.org/dc/dcmitype/StillImage" />
        <dc:title></dc:title>
      </cc:Work>
    </rdf:RDF>
  </metadata>
  <g
     inkscape:label="Layer 1"
     inkscape:groupmode="layer"
     id="layer1">
    <g
       id="g2471"
       inkscape:label="Layer 1"
       transform="matrix(0.23838204,0,0,0.23800459,-0.9907937,-4.9259811)">
      <g
         id="g4523"
         transform="translate(5,-2)">
        <path
           id="path14534"
           sodipodi:nodetypes="csssssssssssssssscc"
           style="fill:#0f5f00;fill-rule:evenodd"
           d="M 71.432,31.797 C 66.564,28.012 55.808,25.033 49.708,24.13 c -3.905,-0.578 -9.162,1.439 -12.891,2.736 -3.065,1.066 -6.983,2.981 -9.679,4.788 -4.43,2.967 -9.998,7.619 -13.368,11.751 -2.496,3.06 -4.7744,7.893 -6.508,11.441 -2.5417,5.201 -6.4669,12.124 -7.3577,17.845 -2.5797,16.566 2.1393,14.449 4.684,20.104 2.2996,5.11 6.8887,11.255 10.819,15.255 4.249,4.32 11.033,8.87 16.27,11.92 3.812,2.21 9.21,4.73 13.43,6.01 2.983,0.9 7.127,1.9 10.239,1.74 4.603,-0.24 10.72,-2 14.798,-4.15 5.197,-2.74 10.897,-8.36 14.985,-12.58 3.022,-3.12 7.027,-7.49 8.974,-11.377 1.695,-3.381 2.292,-8.534 3.275,-12.186 0.982,-3.653 3.742,-8.416 3.252,-12.166 -0.849,-6.537 -3.017,-16.183 -7.187,-21.288 -5.86,-8.236 -11.607,-16.537 -22.011,-22.176 z" />
        <path
           id="path14532"
           sodipodi:nodetypes="czzzzzzzzzzzzcz"
           style="fill:#20b500;fill-rule:evenodd"
           d="m 54.647,31.368 c -3.675,-1.983 -10.706,0.012 -15.031,0.79 -4.325,0.778 -10.955,3.575 -14.455,6.482 -3.5,2.906 -5.548,5.791 -7.933,9.992 -2.384,4.202 -6.375,10.152 -7.7303,15.217 -1.3551,5.064 -4.3665,11.457 -3.5162,16.449 0.8503,4.991 5.9815,10.409 9.7095,15.217 3.728,4.805 12.147,13.345 18.629,17.405 6.482,4.06 15.452,9.93 23.793,9.18 8.34,-0.74 24.562,-13.78 25.906,-15.75 1.345,-1.96 5.739,-16.031 6.518,-18.221 0.78,-2.19 4.447,-14.302 2.796,-17.815 C 91.682,66.801 89.099,59.601 84.975,54.85 80.788,50.028 75.098,44.947 66.826,37.917 64.36,35.716 58.321,33.351 54.647,31.368 Z" />
        <path
           id="path3387"
           sodipodi:nodetypes="cccccccc"
           style="fill:#411a08;fill-rule:evenodd"
           d="m 104.03,22.697 c -1.13,0.411 -19.358,9.291 -20.916,10.044 -0.705,0.483 -5.174,5.007 -9.464,9.465 l -8.457,9.172 7.631,5.803 11.494,-8.232 16.242,-7.886 z" />
        <path
           id="path3339"
           sodipodi:nodetypes="cccccccc"
           style="fill:#742500;fill-rule:evenodd"
           d="m 99.03,29.197 c -0.814,0.298 -14.008,6.725 -15.136,7.27 -0.51,0.35 -3.745,3.624 -6.85,6.85 l -8.093,7.403 3.982,3.214 9.48,-7.545 13.745,-7.337 z" />
        <path
           id="path4519"
           sodipodi:nodetypes="csssssssssssss"
           style="fill:#000000;fill-opacity:0.25517;fill-rule:evenodd"
           d="m 61.801,49.838 c -0.769,-2.488 2.271,-7.969 -0.235,-8.676 -1.005,-0.284 -1.354,2.028 -1.901,2.918 -0.634,1.029 -1.644,2.337 -2.024,3.485 -0.407,1.229 -0.495,2.992 -0.491,4.287 0.005,1.577 -0.017,3.781 0.63,5.219 0.625,1.389 2.231,2.788 3.37,3.8 1.986,1.764 4.898,3.861 7.271,5.054 2.313,1.163 5.609,3.07 8.178,2.752 2.377,-0.295 7.237,-4.356 6.715,-4.318 -5.404,0.396 -8.926,-0.542 -10.841,-2.462 0,0 -1.995,-2.024 -2.868,-2.875 -1.439,-1.404 -3.577,-3.067 -4.86,-4.615 -1.04,-1.256 -2.463,-3.011 -2.944,-4.569 z" />
        <path
           id="path3327"
           style="fill:#000000;fill-opacity:0.25517;fill-rule:evenodd"
           d="m 17.432,48.302 c -0.067,0.117 -0.131,0.213 -0.199,0.332 -2.385,4.202 -6.379,10.139 -7.7339,15.203 -1.0974,4.101 -3.2848,9.085 -3.6239,13.479 -0.0011,0.014 10e-4,0.03 0,0.044 l 0.3535,4.066 c 1.3459,4.675 6.0053,9.646 9.4573,14.098 3.729,4.806 12.147,13.326 18.628,17.386 6.482,4.07 15.458,9.92 23.799,9.17 2.46,-0.21 5.613,-1.48 8.861,-3.24 C 54.141,117.19 47.111,112.63 44.103,106.4 L 36.899,97.115 24.702,82.045 17.432,68.234 Z" />
      </g>
    </g>
  </g>
</svg>
