<?xml version="1.0" encoding="UTF-8" standalone="no"?>
<svg
   xmlns:dc="http://purl.org/dc/elements/1.1/"
   xmlns:cc="http://creativecommons.org/ns#"
   xmlns:rdf="http://www.w3.org/1999/02/22-rdf-syntax-ns#"
   xmlns:svg="http://www.w3.org/2000/svg"
   xmlns="http://www.w3.org/2000/svg"
   xmlns:sodipodi="http://sodipodi.sourceforge.net/DTD/sodipodi-0.dtd"
   xmlns:inkscape="http://www.inkscape.org/namespaces/inkscape"
   width="25mm"
   height="25mm"
   viewBox="0 0 25 25"
   version="1.1"
   id="svg188"
   inkscape:version="1.0.2-2 (e86c870879, 2021-01-15)"
   sodipodi:docname="appleRed.svg">
  <defs
     id="defs182" />
  <sodipodi:namedview
     id="base"
     pagecolor="#ffffff"
     bordercolor="#666666"
     borderopacity="1.0"
     inkscape:pageopacity="0.0"
     inkscape:pageshadow="2"
     inkscape:zoom="0.35"
     inkscape:cx="400"
     inkscape:cy="560"
     inkscape:document-units="mm"
     inkscape:current-layer="layer1"
     inkscape:document-rotation="0"
     showgrid="false"
     inkscape:window-width="1267"
     inkscape:window-height="1040"
     inkscape:window-x="208"
     inkscape:window-y="0"
     inkscape:window-maximized="0" />
  <metadata
     id="metadata185">
    <rdf:RDF>
      <cc:Work
         rdf:about="">
        <dc:format>image/svg+xml</dc:format>
        <dc:type
           rdf:resource="http://purl.org/dc/dcmitype/StillImage" />
        <dc:title></dc:title>
      </cc:Work>
    </rdf:RDF>
  </metadata>
  <g
     inkscape:label="Layer 1"
     inkscape:groupmode="layer"
     id="layer1">
    <g
       id="g2445"
       inkscape:label="Layer 1"
       transform="matrix(0.06076288,-0.03194507,0.03508272,0.05533261,-23.443752,8.840222)">
      <path
         id="path3094"
         style="fill:#67cd03"
         d="m 401.94,213.93 c 8.55,-13.51 29.33,-62.4 71.51,-72.49 42.18,-10.09 42.9,81.24 10.03,94.78 -32.88,13.54 -68.42,-9.41 -80.38,-15.56 -2.72,-2.27 -1.77,-3.7 -1.16,-6.73 z"
         sodipodi:nodetypes="czzcc"
         inkscape:transform-center-y="103.36906"
         inkscape:transform-center-x="-79.376842" />
      <path
         id="path3096"
         style="fill:#005b00"
         d="m 408.65,211.22 c 7.38,-11.66 26.6,-50.6 63,-59.31 36.4,-8.71 33.02,69.57 4.65,81.25 -28.36,11.69 -56.33,-10.83 -66.65,-16.13 -2.46,-1.98 -1.39,-3.2 -1,-5.81 z"
         inkscape:transform-center-x="-68.501383"
         inkscape:transform-center-y="89.206417"
         sodipodi:nodetypes="czzcc" />
      <path
         id="path3995"
         sodipodi:nodetypes="ccssscssc"
         style="fill:#a40000"
         d="m 469.6,195.18 c -25.72,0 -49.56,8.84 -69.03,23.87 -18.52,-12.86 -40.54,-20.33 -64.17,-20.33 -65.67,0 -117.55,57.7 -118.96,128.75 -1.42,71.26 76.96,156.96 162.47,170.84 12.26,1.99 18.9,-5.4 26.41,-10.57 18.51,12.86 13.02,13.23 36.64,13.23 65.68,0 145.6,-105.99 145.6,-177.05 0,-71.07 -53.29,-128.74 -118.96,-128.74 z" />
      <path
         id="path4545"
         sodipodi:nodetypes="cccccccccc"
         style="fill:#611404"
         d="m 465.69,109.77 c -12.74,6.86 -25.88,13.68 -33.67,25.74 -11.78,19.12 -19.35,40.49 -28.75,60.78 -4.74,10.69 -6.25,25.78 -10.66,36.6 0.19,2.99 4.01,3.21 5.41,1.01 8.35,-14.32 14.98,-29.73 22.68,-44.47 6.27,-12.32 13.16,-24.38 20.6,-36.06 7.4,-10.15 15.64,-19.75 21.95,-30.8 1.82,-3.58 4.76,-6.98 5.38,-10.97 -0.32,-1.26 -1.69,-2.02 -2.94,-1.83 z" />
      <path
         id="path4526"
         style="fill:#ff0000"
         sodipodi:nodetypes="ccszccczc"
         d="m 211.52,278.11 c -6.78,0 -13.49,2.07 -18.62,6.03 -4.88,-3.39 -10.77,-7.7 -16.99,-7.7 -17.31,0 -28.41,20.15 -27.65,36.06 0.76,16.09 8.85,31.55 35.93,40.61 4.38,-0.01 6.86,-0.99 9.45,-3.57 4.61,3.2 5.67,4.26 11.55,4.26 21.31,-3.27 35.66,-24.29 35.44,-44.1 -0.22,-19.71 -11.81,-31.59 -29.11,-31.59 z"
         transform="matrix(3.5159,0,0,3.5159,-280.34,-764.63)" />
      <g
         id="g3323"
         transform="rotate(-24.878785,388.5903,236.74633)">
        <path
           id="path4655"
           style="fill:#67cd03"
           d="m 400.5,234.52 c 1.03,-15.96 4.82,-67.77 -24.18,-99.52 -28.99,-31.75 -101,36.57 -75.96,70.43 25.04,33.86 78.47,31.99 94.35,33.91 3.93,-0.08 4.21,-1.85 5.79,-4.82 z"
           sodipodi:nodetypes="czzcc"
           inkscape:transform-center-y="37.68681"
           inkscape:transform-center-x="162.34319" />
        <path
           id="path4657"
           style="fill:#005b00"
           d="m 395.85,228.43 c 0.89,-13.78 2.61,-56.38 -22.41,-83.78 -25.02,-27.41 -82.71,30.73 -61.1,59.95 21.6,29.22 64.81,26.33 78.51,27.98 3.51,-0.04 3.49,-1.68 5,-4.15 z"
           inkscape:transform-center-x="140.10047"
           sodipodi:nodetypes="czzcc"
           inkscape:transform-center-y="32.523324" />
      </g>
      <path
         id="path3391"
         style="fill:#000000;fill-opacity:0.18"
         d="m 545.09,304.28 c -4.01,10.47 -1.93,24.06 3.94,33.19 8.71,13.55 23.42,22.88 51.41,17.19 1.07,-0.63 1.95,-1.24 2.72,-1.88 -28.45,-1.27 -51.93,-21.59 -58.07,-48.5 z"
         transform="matrix(3.0448,1.7579,-1.7579,3.0448,-837.53,-1658.6)" />
    </g>
  </g>
</svg>
