<svg id="Layer_1_1_" enable-background="new 0 0 384 635" height="635" viewBox="0 0 384 635" width="384" xmlns="http://www.w3.org/2000/svg">
    <g transform="matrix(0.3,0,0,0.3,0,0)">
        <path style="fill: #91cc04"
            d="M 873.4 139.3 c -4.4 2.1 -8.9 3.6 -13.5 4.4 c -3.2 0.6 -6.4 0.8 -9.6 0.7 c -2.5 0 -5.1 -0.3 -7.5 -0.7 c -15.9 -2.6 -30.4 -12.7 -38 -28.4 c -12.3 -25.6 -1.6 -56.3 24 -68.6 c 13.4 -6.5 28.3 -6.6 41.1 -1.5 c 0 0 0 0 0 0 c 0.6 0.2 1.2 0.5 1.8 0.7 c 10.8 4.7 20.1 13.2 25.6 24.7 C 909.7 96.3 899 127 873.4 139.3 z" />
        <path style="fill: #9cdd05"
            d="M 873.4 139.3 c -4.4 2.1 -8.9 3.6 -13.5 4.4 c -10.8 -4.7 -20.1 -13.2 -25.6 -24.7 c -12.3 -25.6 -1.6 -56.3 24 -68.6 c 4.4 -2.1 8.9 -3.6 13.5 -4.4 c 10.8 4.7 20.1 13.2 25.6 24.7 C 909.7 96.3 899 127 873.4 139.3 z" />
        <path style="fill: #85bb04"
            d="M 1098.3 41.5 c -21.2 -8.5 -35 -0.5 -43 7.8 l 4.9 -37.7 c 0.6 -4.2 -2.4 -8.1 -6.6 -8.7 c -4.2 -0.5 -8.1 2.4 -8.7 6.6 l -10.4 78.8 c -0.6 4.2 2.4 8.1 6.6 8.7 c 0.3 0 0.7 0.1 1 0.1 c 3.8 0 7.1 -2.8 7.6 -6.7 l 3.3 -24.9 c 25.1 11.3 40.8 -0.7 48.6 -10.3 C 1105.5 50.6 1103.8 43.7 1098.3 41.5 z" />
        <path style="fill: #eebf00"
            d="M 1103 165.2 c -4.4 40 -42 67.6 -81.4 59.9 c -34.7 -6.8 -59 -39.1 -55 -74.9 c 4.1 -37.7 38.1 -64.9 75.7 -60.7 C 1080 93.6 1107.1 127.6 1103 165.2 z" />
        <path style="fill: #ffcd00"
            d="M 1103 165.2 c -3.4 30.5 -26.2 54.1 -54.8 59.8 c -20.2 -13.8 -32.4 -38.1 -29.5 -64.2 c 3.4 -30.5 26.2 -54.1 54.8 -59.8 C 1093.7 114.8 1105.8 139.1 1103 165.2 z" />
        <path style="fill: #3fa45a"
            d="M 1013 175.1 c 0 43.3 -28.5 79.9 -67.8 92 c -7.3 2.3 -15 3.7 -22.9 4.2 c -1.3 0.1 -2.5 0.1 -3.8 0.1 c -0.6 0 -1.2 0 -1.8 0 c -53.2 0 -96.4 -43.1 -96.4 -96.4 s 43.1 -96.4 96.4 -96.4 c 1.9 0 3.8 0.1 5.7 0.2 c 4 0.2 7.9 0.7 11.7 1.4 c 1.7 0.3 3.3 0.6 5 1 C 981.4 91.4 1013 129.6 1013 175.1 z" />
        <path style="fill: #4cba68"
            d="M 1013 175.1 c 0 43.3 -28.5 79.9 -67.8 92 c -44.9 -8.2 -79 -47.5 -79 -94.8 c 0 -43.3 28.5 -79.9 67.7 -92 c 1.7 0.3 3.3 0.6 5 1 C 981.4 91.4 1013 129.6 1013 175.1 z" />
        <path style="fill: #cd2a00"
            d="M 1190.7 167.1 c 0 28.1 -22.7 51.4 -51.4 51.4 c -28.4 0 -51.4 -23 -51.4 -51.4 c 0 -37.5 39.1 -62.4 72.8 -46.7 C 1178.4 128.6 1190.7 146.4 1190.7 167.1 z" />
        <path style="fill: #85bb04"
            d="M 790 10.8 C 762.7 13.1 752.9 29.2 749.4 42.1 L 736 7.8 c -1.6 -4 -6 -5.9 -10 -4.4 c -4 1.6 -5.9 6 -4.4 10 l 27.5 70.3 c 1.2 3 4.1 4.9 7.2 4.9 c 0.9 0 1.9 -0.2 2.8 -0.5 c 4 -1.6 5.9 -6 4.4 -10 l -7.6 -19.4 c 32.6 -1.9 41.4 -24 43.7 -37.6 C 800.5 15.4 795.8 10.4 790 10.8 z" />
        <path style="fill: #cd2a00"
            d="M 799.3 229.4 c -2.7 0.5 -5.4 0.8 -8.1 1.1 c -33.4 2.9 -66.1 -16.2 -78.9 -49 C 689.9 124.2 739.6 66.6 797.6 76.6 c 1.5 0.3 2.9 0.6 4.4 0.9 c 24.1 5.6 45.1 22.6 54.8 47.3 C 875 171.4 844.9 220.9 799.3 229.4 z" />
        <g>
            <path style="fill: #ff3501"
                d="M 799.3 229.4 c -24.3 -5.7 -45.6 -22.9 -55.4 -47.9 c -15.8 -40.4 4.1 -86 44.6 -101.9 c 3 -1.2 6 -2.1 9.1 -2.9 c 1.5 0.3 2.9 0.6 4.4 0.9 c 24.1 5.6 45.1 22.6 54.8 47.3 C 875 171.4 844.9 220.9 799.3 229.4 z" />
            <path style="fill: #ff3501"
                d="M 1190.7 167.1 c 0 25 -17.9 45.9 -41.6 50.4 c -17.7 -8.1 -29.9 -26 -29.9 -46.7 c 0 -25 17.9 -45.9 41.6 -50.4 C 1178.4 128.6 1190.7 146.4 1190.7 167.1 z" />
        </g>
        <path style="fill: #cc7400"
            d="M 1171.8 218.6 v 274.1 c 0 12.2 -10 22.1 -22.1 22.1 H 732.3 c -12.2 0 -22.1 -10 -22.1 -22.1 V 218.6 c 0 -3.7 2.2 -6.9 5.3 -8.3 c 1.2 -0.6 2.6 -0.9 4 -0.9 h 443.1 C 1167.6 209.4 1171.8 213.5 1171.8 218.6 z" />
        <path style="fill: #aa6100"
            d="M 1193.3 188.9 v 48.3 c 0 7.2 -5.9 13.1 -13.1 13.1 H 701.8 c -7.2 0 -13.1 -5.9 -13.1 -13.1 v -48.3 c 0 -7.2 5.9 -13.1 13.1 -13.1 h 478.4 C 1187.4 175.8 1193.3 181.7 1193.3 188.9 z" />
        <path style="fill: #cc7400"
            d="M 1193.3 188.9 v 48.3 c 0 7.2 -5.9 13.1 -13.1 13.1 H 735.6 c -7.2 0 -13.1 -5.9 -13.1 -13.1 v -48.3 c 0 -7.2 5.9 -13.1 13.1 -13.1 h 444.6 C 1187.4 175.8 1193.3 181.7 1193.3 188.9 z" />
        <path id="SVGCleanerId_0" style="fill: #ee8700" d="M 1171.8 250.3 V 492.8 c 0 12.2 -10 22.1 -22.1 22.1 H 768.1 c -12.2 0 -22.1 -10 -22.1 -22.1 V 250.3 H 1171.8 z" />
        <g>
            <path id="SVGCleanerId_0_1_" style="fill: #ee8700" d="M 1171.8 250.3 V 492.8 c 0 12.2 -10 22.1 -22.1 22.1 H 768.1 c -12.2 0 -22.1 -10 -22.1 -22.1 V 250.3 H 1171.8 z" />
        </g>
        <path style="fill: #ff9811"
            d="M 1171.8 289.8 v -21.8 l -60.7 60.7 l -51.2 -51.2 l 27.2 -27.2 h -21.8 l -16.3 16.3 l -16.3 -16.3 H 1020.3 l -16.3 16.3 l -16.3 -16.3 h -21.8 l 27.2 27.2 l -51.2 51.2 l -51.2 -51.2 l 27.2 -27.2 h -21.8 l -16.3 16.3 l -16.3 -16.3 h -12.5 l -16.3 16.3 l -16.3 -16.3 h -21.8 l 27.2 27.2 L 772.7 328.6 l -62.5 -62.5 v 21.8 l 51.6 51.6 l -11.6 11.6 c -8.2 -8.2 -32.2 -32.2 -40 -40 v 21.8 l 29.1 29.1 l -29.1 29.1 v 21.8 l 40 -40 l 11.6 11.6 l -51.6 51.6 v 21.8 c 7.8 -7.8 54.6 -54.6 62.5 -62.5 l 51.2 51.2 l -68.2 68.2 h 21.8 l 57.3 -57.3 l 11.6 11.6 l -45.7 45.7 h 21.8 l 34.8 -34.8 l 34.8 34.8 h 21.8 c -9.1 -9.1 -29.8 -29.8 -45.7 -45.7 l 11.6 -11.6 l 0 0 c 16.8 16.8 40.1 40.1 57.3 57.3 h 9.6 c 17 -17 40.5 -40.5 57.3 -57.3 l 0 0 l 11.6 11.6 l -37.9 37.9 l -7.8 7.8 h 21.8 l 34.8 -34.8 l 34.8 34.8 h 21.8 l -45.7 -45.7 l 11.6 -11.6 l 57.3 57.3 h 21.8 l -68.2 -68.2 l 51.2 -51.2 c 11.5 11.5 48.1 48.1 60.7 60.7 v -21.8 l -49.7 -49.7 l 11.6 -11.6 l 38.1 38.1 v -21.8 l -27.2 -27.2 l 27.2 -27.2 v -21.8 c -17.9 17.9 -21.2 21.2 -38.1 38.1 l -11.6 -11.6 C 1129.6 332 1164.2 297.4 1171.8 289.8 z M 1049 288.4 l 51.2 51.2 l -11.6 11.6 l -51.2 -51.2 L 1049 288.4 z M 1077.7 362.1 l -51.2 51.2 l -51.2 -51.2 l 51.2 -51.2 L 1077.7 362.1 z M 1026.5 265.9 l 11.6 11.6 l -11.6 11.6 l -11.6 -11.6 L 1026.5 265.9 z M 1004 288.4 l 11.6 11.6 l -51.2 51.2 l -11.6 -11.6 L 1004 288.4 z M 953.5 362.1 l -11.6 11.6 l 0 0 l -11.6 -11.6 l 11.6 -11.6 L 953.5 362.1 z M 931 339.6 l -11.6 11.6 l -33.7 -33.7 l -17.5 -17.5 l 11.6 -11.6 L 931 339.6 z M 908.5 362.1 l -51.2 51.2 l -51.2 -51.2 l 51.2 -51.2 L 908.5 362.1 z M 857.3 265.9 l 11.6 11.6 l -11.6 11.6 l -11.6 -11.6 L 857.3 265.9 z M 834.8 288.4 l 11.6 11.6 l -32.6 32.6 l -18.5 18.5 l -11.6 -11.6 L 834.8 288.4 z M 761.1 362.1 l 11.6 -11.6 l 0 0 l 11.6 11.6 l -11.6 11.6 L 761.1 362.1 z M 783.6 384.6 l 11.6 -11.6 l 51.2 51.2 l -11.6 11.6 L 783.6 384.6 z M 857.3 458.3 l -11.6 -11.6 l 11.6 -11.6 l 11.6 11.6 L 857.3 458.3 z M 879.8 435.8 l -11.6 -11.6 l 51.2 -51.2 l 11.6 11.6 L 879.8 435.8 z M 941.9 497.9 l -51.2 -51.2 l 51.2 -51.2 l 51.2 51.2 L 941.9 497.9 z M 952.9 384.6 L 952.9 384.6 l 11.6 -11.6 l 51.2 51.2 l -11.6 11.6 L 952.9 384.6 z M 1026.5 458.3 l -11.6 -11.6 l 11.6 -11.6 l 11.6 11.6 L 1026.5 458.3 z M 1049 435.8 l -11.6 -11.6 l 51.2 -51.2 l 11.6 11.6 L 1049 435.8 z M 1122.7 362.1 l -11.6 11.6 l -11.6 -11.6 l 11.6 -11.6 L 1122.7 362.1 z" />
        <g>
            <path style="fill: #ee8700" d="M 710.2 311.1 v 21.8 l 29.1 29.1 L 710.2 391.2 v 21.8 l 35.7 -35.7 V 346.9 C 735.6 336.5 716.9 317.9 710.2 311.1 z" />
            <path style="fill: #ee8700" d="M 710.2 458 c 4.3 -4.3 20.7 -20.7 35.7 -35.7 v -21.8 l -35.7 35.7 C 710.2 436.2 710.2 458 710.2 458 z" />
            <polygon style="fill: #ee8700" points="710.2,266.1 710.2,288 745.9,323.7 745.9,301.8" />
        </g>
    </g>
    <g transform="matrix(8,0,0,8,0,0)">
        <path d="M 2.6 79.3 h 4 l 1 -7 h -6 z" fill="#7a4124" />
        <path d="M 39.6 72.3 l 1 7 h 4 l 1 -7 z" fill="#7a4124" />
        <path d="M 7.3 74.3 l 0.3 -2 h -6 l 0.3 2 z" fill="#63351d" />
        <path d="M 45.3 74.3 l 0.3 -2 h -6 l 0.3 2 z" fill="#63351d" />
        <path d="M 47.6 72.3 v -53 h -48 v 53 h 2 h 6 h 32 h 6 z" fill="#904c2a" />
        <path d="M 3.6 40.3 h 40 v 12 h -40 z" fill="#fff9f0" />
        <path d="M 3.6 56.3 h 40 v 12 h -40 z" fill="#fff9f0" />
        <path d="M 3.6 24.3 h 40 v 12 h -40 z" fill="#fff9f0" />
        <path d="M 3.6 68.3 h 40 l -27.1 -3 c -5.5 -0.6 -10.4 -4 -12.9 -9 z" fill="#fff2e2" />
        <path d="M 3.6 52.3 h 40 l -27.1 -3 c -5.5 -0.6 -10.4 -4 -12.9 -9 z" fill="#fff2e2" />
        <path d="M 3.6 36.3 h 40 l -27.1 -3 c -5.5 -0.6 -10.4 -4 -12.9 -9 z" fill="#fff2e2" />
        <g fill="#904c2a">
            <path d="M 18.6 43.3 h 10 v 2 h -10 z" />
            <path d="M 18.6 27.3 h 10 v 2 h -10 z" />
            <path d="M 18.6 59.3 h 10 v 2 h -10 z" />
        </g>
        <path d="M 41.2 27.3 h -5.3 c -0.2 0 -0.4 -0.2 -0.4 -0.5 s 0.2 -0.5 0.4 -0.5 h 5.3 c 0.2 0 0.4 0.2 0.4 0.5 s -0.2 0.5 -0.4 0.5 z" fill="#ffffff" />
        <path d="M 41.2 43.3 h -5.3 c -0.2 0 -0.4 -0.2 -0.4 -0.5 s 0.2 -0.5 0.4 -0.5 h 5.3 c 0.2 0 0.4 0.2 0.4 0.5 s -0.2 0.5 -0.4 0.5 z" fill="#ffffff" />
        <path d="M 41.2 59.3 h -5.3 c -0.2 0 -0.4 -0.2 -0.4 -0.5 s 0.2 -0.5 0.4 -0.5 h 5.3 c 0.2 0 0.4 0.2 0.4 0.5 s -0.2 0.5 -0.4 0.5 z" fill="#ffffff" />
    </g>
</svg>