<?xml version="1.0" encoding="utf-8"?>
<!-- Generator: Adobe Illustrator 16.0.0, SVG Export Plug-In . SVG Version: 6.00 Build 0)  -->
<!DOCTYPE svg PUBLIC "-//W3C//DTD SVG 1.1//EN" "http://www.w3.org/Graphics/SVG/1.1/DTD/svg11.dtd">
<svg version="1.1" id="Layer_1" xmlns="http://www.w3.org/2000/svg" xmlns:xlink="http://www.w3.org/1999/xlink" x="0px" y="0px" width="1135px" height="1140px" viewBox="0 0 1135 1140"
	enable-background="new 0 0 1568 1400" xml:space="preserve">
	<defs>
		<style type="text/css">
			@keyframes fire-frames {
				from {
					transform: rotate(-10deg);
				}

				to {
					transform: rotate(10deg);
				}
			}

			.fire {
				animation-name: fire-frames;
				animation-duration: 1.5s;
				animation-timing-function: linear;
				animation-direction: alternate;
				animation-iteration-count: infinite;
			}

			.fire1 {
				transform-origin: 128.1px 202.8px;
			}

			.fire2 {
				transform-origin: 155.8px 205px;
				animation-delay: 0.2s;
			}

			.fire3 {
				transform-origin: 182.6px 205.9px;
				animation-delay: 0.4s;
			}

			.fire4 {
				transform-origin: 254px 202.8px;
				animation-delay: 0.9s;
			}

			.fire5 {
				transform-origin: 226.2px 205px;
				animation-delay: 1.1s;
			}

			.fire6 {
				transform-origin: 199.5px 205.9px;
				animation-delay: 1.5s;
			}

			@keyframes bubble-frames {
				from {
					transform: unset;
				}

				to {
					transform: translateY(29px);
				}
			}

			.bubble {
				animation-name: bubble-frames;
				animation-duration: 0.8s;
				animation-timing-function: ease-in;
				animation-direction: alternate;
				animation-iteration-count: infinite;
			}

			.bubble2 {
				animation-delay: 0.3s;
				animation-duration: 0.4s;
			}

			.bubble3 {
				animation-delay: 0.3s;
			}

			.bubble4 {
				animation-delay: 0.2s;
			}

			.bubble5 {
				animation-delay: 0.8s;
				animation-duration: 0.7s;
			}
		</style>
	</defs>

	<g transform="scale(1.8)">
		<g>
			<g class="bubble">
				<path fill="#cfecff" d="M 82.9 21.7 c 0 -11.9 12.4 -21.5 27.8 -21.5 c 15.4 0 27.8 9.6 27.8 21.5 H 82.9 z" />
				<path fill="#a8d5f2" d="M 94 21.7 c 0 -9.5 9.9 -17.2 22.2 -17.2 c 12.3 0 22.2 7.7 22.2 17.2 H 94 z" />
			</g>
			<g class="bubble bubble2">
				<path fill="#cfecff" d="M 179.4 18.2 c 0 -8 8.4 -14.5 18.7 -14.5 s 18.7 6.5 18.7 14.5 H 179.4 z" />
				<path fill="#a8d5f2" d="M 186.9 18.2 c 0 -6.4 6.7 -11.6 15 -11.6 s 15 5.2 15 11.6 H 186.9 z" />
			</g>
			<g class="bubble bubble3">
				<path fill="#cfecff" d="M 223.2 18.2 c 0 -9.9 10.4 -18 23.3 -18 s 23.3 8.1 23.3 18 H 223.2 z" />
				<path fill="#a8d5f2" d="M 232.5 18.2 c 0 -7.9 8.3 -14.4 18.6 -14.4 s 18.6 6.4 18.6 14.4 H 232.5 z" />
			</g>
			<g class="bubble bubble4">
				<path fill="#cfecff" d="M 147.8 20.1 c 0 -5.9 6.2 -10.8 13.9 -10.8 s 13.9 4.8 13.9 10.8 H 147.8 z" />
				<path fill="#a8d5f2" d="M 153.4 20.1 c 0 -4.7 5 -8.6 11.1 -8.6 c 6.1 0 11.1 3.8 11.1 8.6 H 153.4 z" />
			</g>
			<g class="bubble bubble5">
				<path fill="#cfecff" d="M 275.9 20.1 c 0 -5.9 4.8 -10.8 10.7 -10.8 s 10.7 4.8 10.7 10.8 H 275.9 z" />
				<path fill="#a8d5f2" d="M 280.2 20.1 c 0 -4.7 3.8 -8.6 8.5 -8.6 s 8.5 3.8 8.5 8.6 H 280.2 z" />
			</g>
		</g>
		<path fill="#0f75bd" d="M 193.5 33.4 H 64.7 v 79 c 0 46.4 37.6 84 84 84 h 44.9 h 44.9 c 46.4 0 84 -37.6 84 -84 v -79 H 193.5 z" />
		<g>
			<rect x="40.4" y="55.1" fill="#e7e8ea" width="24.2" height="17.9" />
			<path fill="#634e42" d="M 40.4 49 V 79.1 h -27.7 c -6.5 0 -11.7 -5.2 -11.7 -11.7 v -6.7 c 0 -6.5 5.2 -11.7 11.7 -11.7 H 40.4 z" />
		</g>
		<path fill="#106bac" transform="translate(0,1)"
			d="M 325.6 33.4 H 61.4 c -5.2 0 -9.3 -4.2 -9.3 -9.3 v 0 c 0 -5.2 4.2 -9.3 9.3 -9.3 h 264.2 c 5.2 0 9.3 4.2 9.3 9.3 v 0 C 335 29.2 330.8 33.4 325.6 33.4 z" />
		<path opacity="0.2" d="M 157.9 196.3 h -8.3 c -42.2 0 -54 -37.6 -54 -84 v -78.9 h 62.4 V 196.3 z" />
		<rect x="157.9" y="33.4" opacity="0.1" width="17.7" height="163" />
		<g>
			<g>
				<path fill="#6d6e72"
					d="M 272.3 233.9 l -38.7 1.8 c -27.8 1.3 -55.7 1.3 -83.5 0 l -38.7 -1.8 c -3.8 -0.2 -6.3 -5.3 -4.7 -9.7 l 6.3 -17.7 h 157.7 l 6.3 17.7 C 278.6 228.7 276.1 233.8 272.3 233.9 z" />
				<path fill="#3a3a3c"
					d="M 271.2 206.5 H 112.6 c -2.4 0 -4.3 -1.9 -4.3 -4.3 V 201.1 c 0 -2.4 1.9 -4.3 4.3 -4.3 h 158.6 c 2.4 0 4.3 1.9 4.3 4.3 v 1.2 C 275.5 204.6 273.6 206.5 271.2 206.5 z" />
			</g>
			<path d="M 128.2 213.8 h -2.6 c -2 0 -3.7 -1.7 -3.7 -3.7 v -3.5 h 10 v 3.5 C 131.9 212.1 130.3 213.8 128.2 213.8 z" />
			<path d="M 154.2 213.8 h -2.6 c -2 0 -3.7 -1.7 -3.7 -3.7 v -3.5 h 10 v 3.5 C 157.9 212.1 156.3 213.8 154.2 213.8 z" />
			<path d="M 180.2 213.8 h -2.6 c -2 0 -3.7 -1.7 -3.7 -3.7 v -3.5 h 10 v 3.5 C 183.9 212.1 182.2 213.8 180.2 213.8 z" />
			<path d="M 206.2 213.8 h -2.6 c -2 0 -3.7 -1.7 -3.7 -3.7 v -3.5 h 10 v 3.5 C 209.9 212.1 208.2 213.8 206.2 213.8 z" />
			<path d="M 232.2 213.8 h -2.6 c -2 0 -3.7 -1.7 -3.7 -3.7 v -3.5 h 10 v 3.5 C 235.9 212.1 234.2 213.8 232.2 213.8 z" />
			<path d="M 258.2 213.8 h -2.6 c -2 0 -3.7 -1.7 -3.7 -3.7 v -3.5 h 10 v 3.5 C 261.9 212.1 260.2 213.8 258.2 213.8 z" />
		</g>
		<g>
			<g class="fire fire1">
				<path fill="#e30613" d="M 131.8 195.3 c 2.4 5.2 0.2 11.3 -4.9 13.8 s -11.3 0.2 -13.8 -4.9 c -4.7 -10 0.2 -23.8 0.2 -23.8 S 127.8 186.9 131.8 195.3 z" />
				<path fill="#ff6700" d="M 130.5 198.9 c 1.8 3.8 0.2 8.4 -3.7 10.2 c -3.8 1.8 -8.4 0.2 -10.2 -3.7 c -3.5 -7.4 0.2 -17.7 0.2 -17.7 S 127.6 192.6 130.5 198.9 z" />
				<path fill="#ffc200" d="M 129.1 202.8 c 1.1 2.4 0.1 5.2 -2.3 6.3 c -2.4 1.1 -5.2 0.1 -6.3 -2.3 c -2.2 -4.6 0.1 -10.9 0.1 -10.9 S 127.3 199 129.1 202.8 z" />
			</g>
			<g class="fire fire2">
				<path fill="#e30613" d="M 161.4 198.5 c 1 5.6 -2.8 11 -8.5 11.9 c -5.6 1 -11 -2.8 -11.9 -8.5 c -1.8 -10.9 6.6 -22.9 6.6 -22.9 S 159.9 189.3 161.4 198.5 z" />
				<path fill="#ff6700" d="M 159.2 201.5 c 0.7 4.2 -2.1 8.2 -6.3 8.9 c -4.2 0.7 -8.2 -2.1 -8.9 -6.3 c -1.4 -8.1 4.9 -17 4.9 -17 S 158.1 194.7 159.2 201.5 z" />
				<path fill="#ffc200" d="M 156.8 205 c 0.4 2.6 -1.3 5 -3.9 5.4 c -2.6 0.4 -5 -1.3 -5.4 -3.9 c -0.8 -5 3 -10.4 3 -10.4 S 156.1 200.8 156.8 205 z" />
			</g>
			<g class="fire fire3">
				<path fill="#e30613" d="M 189.3 200.3 c 0 5.7 -4.7 10.3 -10.4 10.3 c -5.7 0 -10.3 -4.7 -10.3 -10.4 c 0.1 -11 10.5 -21.4 10.5 -21.4 S 189.3 191 189.3 200.3 z" />
				<path fill="#ff6700" d="M 186.6 203 c 0 4.3 -3.5 7.7 -7.7 7.6 c -4.3 0 -7.7 -3.5 -7.6 -7.7 c 0.1 -8.2 7.8 -15.9 7.8 -15.9 S 186.6 196 186.6 203 z" />
				<path fill="#ffc200" d="M 183.6 205.9 c 0 2.6 -2.1 4.7 -4.8 4.7 c -2.6 0 -4.7 -2.1 -4.7 -4.8 c 0 -5 4.8 -9.8 4.8 -9.8 S 183.6 201.7 183.6 205.9 z" />
			</g>
			<g class="fire fire4">
				<path fill="#e30613" d="M 252.3 195.3 c -2.4 5.2 -0.2 11.3 4.9 13.8 c 5.2 2.4 11.3 0.2 13.8 -4.9 c 4.7 -10 -0.2 -23.8 -0.2 -23.8 S 256.3 186.9 252.3 195.3 z" />
				<path fill="#ff6700" d="M 253.6 198.9 c -1.8 3.8 -0.2 8.4 3.7 10.2 c 3.8 1.8 8.4 0.2 10.2 -3.7 c 3.5 -7.4 -0.2 -17.7 -0.2 -17.7 S 256.5 192.6 253.6 198.9 z" />
				<path fill="#ffc200" d="M 255 202.8 c -1.1 2.4 -0.1 5.2 2.3 6.3 c 2.4 1.1 5.2 0.1 6.3 -2.3 c 2.2 -4.6 -0.1 -10.9 -0.1 -10.9 S 256.8 199 255 202.8 z" />
			</g>
			<g class="fire fire5">
				<path fill="#e30613" d="M 222.6 198.5 c -1 5.6 2.8 11 8.5 11.9 c 5.6 1 11 -2.8 11.9 -8.5 c 1.8 -10.9 -6.6 -22.9 -6.6 -22.9 S 224.2 189.3 222.6 198.5 z" />
				<path fill="#ff6700" d="M 224.8 201.5 c -0.7 4.2 2.1 8.2 6.3 8.9 c 4.2 0.7 8.2 -2.1 8.9 -6.3 c 1.4 -8.1 -4.9 -17 -4.9 -17 S 226 194.7 224.8 201.5 z" />
				<path fill="#ffc200" d="M 227.2 205 c -0.4 2.6 1.3 5 3.9 5.4 c 2.6 0.4 5 -1.3 5.4 -3.9 c 0.8 -5 -3 -10.4 -3 -10.4 S 228 200.8 227.2 205 z" />
			</g>
			<g class="fire fire6">
				<path fill="#e30613" d="M 194.8 200.3 c 0 5.7 4.7 10.3 10.4 10.3 c 5.7 0 10.3 -4.7 10.3 -10.4 c -0.1 -11 -10.5 -21.4 -10.5 -21.4 S 194.7 191 194.8 200.3 z" />
				<path fill="#ff6700" d="M 197.5 203 c 0 4.3 3.5 7.7 7.7 7.6 c 4.3 0 7.7 -3.5 7.6 -7.7 c -0.1 -8.2 -7.8 -15.9 -7.8 -15.9 S 197.4 196 197.5 203 z" />
				<path fill="#ffc200" d="M 200.5 205.9 c 0 2.6 2.1 4.7 4.8 4.7 c 2.6 0 4.7 -2.1 4.7 -4.8 c 0 -5 -4.8 -9.8 -4.8 -9.8 S 200.4 201.7 200.5 205.9 z" />
			</g>
		</g>
		<rect x="322.9" y="55.1" fill="#e7e8ea" width="24.2" height="17.9" />
		<path fill="#634e42" d="M 347.1 49 V 79.1 h 27.7 c 6.5 0 11.7 -5.2 11.7 -11.7 v -6.7 c 0 -6.5 -5.2 -11.7 -11.7 -11.7 H 347.1 z" />
	</g>

	<g>
		<path fill="#dbdceb" d="M 1043.5 485.9 H 178.8 c -24 0 -43.6 19.6 -43.6 43.6 v 185.3 h 951.9 V 529.5 C 1087.1 505.5 1067.6 485.9 1043.5 485.9 z" />
		<g>
			<path fill="#cdcedb" d="M 289.8 606.9 c 0 28.2 -22.8 51 -51 51 c -28.2 0 -51 -22.8 -51 -51 c 0 -28.2 22.8 -51 51 -51 C 267 555.9 289.8 578.7 289.8 606.9 z" />
			<circle fill="#cdcedb" cx="383.2" cy="606.9" r="51" />
			<path fill="#cdcedb" d="M 618 606.9 c 0 28.2 -22.8 51 -51 51 c -28.2 0 -51 -22.8 -51 -51 c 0 -28.2 22.8 -51 51 -51 C 595.2 555.9 618 578.7 618 606.9 z" />
			<path fill="#cdcedb" d="M 761.2 606.9 c 0 28.2 -22.8 51 -51 51 c -28.2 0 -51 -22.8 -51 -51 c 0 -28.2 22.8 -51 51 -51 C 738.3 555.9 761.2 578.7 761.2 606.9 z" />
			<path fill="#cdcedb" d="M 904.4 606.9 c 0 28.2 -22.8 51 -51 51 c -28.2 0 -51 -22.8 -51 -51 c 0 -28.2 22.8 -51 51 -51 C 881.5 555.9 904.4 578.7 904.4 606.9 z" />
			<path fill="#cdcedb" d="M 1047.5 606.9 c 0 28.2 -22.8 51 -51 51 c -28.2 0 -51 -22.8 -51 -51 c 0 -28.2 22.8 -51 51 -51 C 1024.7 555.9 1047.5 578.7 1047.5 606.9 z" />
		</g>
		<path fill="#eeefff"
			d="M 135.2 529.5 c 0 -24 19.6 -43.6 43.6 -43.6 H 1043.5 c 24 0 43.6 19.6 43.6 43.6 v 185.3 h 43.6 V 529.5 c 0 -48.2 -39 -87.2 -87.2 -87.2 H 178.8 c -48.2 0 -87.2 39 -87.2 87.2 v 185.3 h 43.6 V 529.5 z" />
		<rect x="1087.1" y="714.8" fill="#d6d7e6" width="43.6" height="422.7" />
		<rect x="91.6" y="714.8" fill="#d6d7e6" width="43.6" height="422.7" />
		<rect x="135.2" y="714.8" fill="#eeefff" width="951.9" height="422.7" />
		<path fill="#afb0bd" d="M 283.3 600.4 c 0 28.2 -22.8 51 -51 51 c -28.2 0 -51 -22.8 -51 -51 c 0 -28.2 22.8 -51 51 -51 C 260.5 549.4 283.3 572.2 283.3 600.4 z" />
		<path fill="#eeefff" d="M 275.6 600.4 c 0 23.9 -19.4 43.3 -43.3 43.3 c -23.9 0 -43.3 -19.4 -43.3 -43.3 s 19.4 -43.3 43.3 -43.3 C 256.2 557.1 275.6 576.5 275.6 600.4 z" />
		<rect x="224.1" y="566.7" fill="#afb0bd" width="16.4" height="67.4" />
		<path fill="#afb0bd" d="M 427.7 600.4 c 0 28.2 -22.8 51 -51 51 c -28.2 0 -51 -22.8 -51 -51 c 0 -28.2 22.8 -51 51 -51 C 404.9 549.4 427.7 572.2 427.7 600.4 z" />
		<path fill="#eeefff" d="M 420 600.4 c 0 23.9 -19.4 43.3 -43.3 43.3 S 333.5 624.3 333.5 600.4 s 19.4 -43.3 43.3 -43.3 S 420 576.5 420 600.4 z" />
		<rect x="368.5" y="566.7" fill="#afb0bd" width="16.4" height="67.4" />
		<path fill="#afb0bd" d="M 611.5 600.4 c 0 28.2 -22.8 51 -51 51 c -28.2 0 -51 -22.8 -51 -51 c 0 -28.2 22.8 -51 51 -51 C 588.7 549.4 611.5 572.2 611.5 600.4 z" />
		<path fill="#eeefff" d="M 603.8 600.4 c 0 23.9 -19.4 43.3 -43.3 43.3 c -23.9 0 -43.3 -19.4 -43.3 -43.3 s 19.4 -43.3 43.3 -43.3 C 584.4 557.1 603.8 576.5 603.8 600.4 z" />
		<rect x="552.3" y="566.7" fill="#afb0bd" width="16.4" height="67.4" />
		<path fill="#afb0bd" d="M 754.7 600.4 c 0 28.2 -22.8 51 -51 51 c -28.2 0 -51 -22.8 -51 -51 c 0 -28.2 22.8 -51 51 -51 C 731.8 549.4 754.7 572.2 754.7 600.4 z" />
		<path fill="#eeefff" d="M 746.9 600.4 c 0 23.9 -19.4 43.3 -43.3 43.3 c -23.9 0 -43.3 -19.4 -43.3 -43.3 s 19.4 -43.3 43.3 -43.3 C 727.6 557.1 746.9 576.5 746.9 600.4 z" />
		<rect x="695.5" y="566.7" fill="#afb0bd" width="16.4" height="67.4" />
		<path fill="#afb0bd" d="M 897.9 600.4 c 0 28.2 -22.8 51 -51 51 c -28.2 0 -51 -22.8 -51 -51 c 0 -28.2 22.8 -51 51 -51 C 875 549.4 897.9 572.2 897.9 600.4 z" />
		<path fill="#eeefff" d="M 890.1 600.4 c 0 23.9 -19.4 43.3 -43.3 43.3 c -23.9 0 -43.3 -19.4 -43.3 -43.3 s 19.4 -43.3 43.3 -43.3 C 870.8 557.1 890.1 576.5 890.1 600.4 z" />
		<rect x="838.7" y="566.7" fill="#afb0bd" width="16.4" height="67.4" />
		<path fill="#afb0bd" d="M 1041 600.4 c 0 28.2 -22.8 51 -51 51 c -28.2 0 -51 -22.8 -51 -51 c 0 -28.2 22.8 -51 51 -51 C 1018.2 549.4 1041 572.2 1041 600.4 z" />
		<path fill="#eeefff" d="M 1033.3 600.4 c 0 23.9 -19.4 43.3 -43.3 43.3 s -43.3 -19.4 -43.3 -43.3 s 19.4 -43.3 43.3 -43.3 S 1033.3 576.5 1033.3 600.4 z" />
		<rect x="981.8" y="566.7" fill="#afb0bd" width="16.4" height="67.4" />
		<path fill="#6d6e71"
			d="M 483 403.6 H 207.2 c -15.4 0 -27.8 12.5 -27.8 27.8 v 10.9 h 13.9 V 431.5 c 0 -7.7 6.2 -13.9 13.9 -13.9 h 137.7 v 24.8 h 13.6 v -24.8 h 124.6 c 7.7 0 13.9 6.2 13.9 13.9 v 10.9 h 13.9 V 431.5 C 510.8 416.1 498.4 403.6 483 403.6 z" />
		<path fill="#6d6e71"
			d="M 1013.2 403.6 H 737.3 c -15.4 0 -27.8 12.5 -27.8 27.8 v 10.9 h 13.9 V 431.5 c 0 -7.7 6.2 -13.9 13.9 -13.9 h 137.7 v 24.8 h 13.6 v -24.8 h 124.6 c 7.7 0 13.9 6.2 13.9 13.9 v 10.9 h 13.9 V 431.5 C 1041 416.1 1028.6 403.6 1013.2 403.6 z" />
		<g>
			<polygon fill="#96dfff" points="444.3,926.2 274,1137.5 435.5,1137.5 605.8,926.2" />
			<polygon fill="#c4eeff" points="605.8,926.2 435.5,1137.5 599.2,1137.5 769.5,926.2" />
			<polygon fill="#96dfff" points="183.9,926.2 183.9,1137 353.7,926.2" />
			<polygon fill="#c4eeff" points="353.7,926.2 183.9,1137 183.9,1137.5 274,1137.5 444.3,926.2" />
			<polygon fill="#96dfff" points="868,1137.5 1039.2,1137.5 1039.2,926.2 1038.2,926.2" />
			<polygon fill="#c4eeff" points="947.7,926.2 777.4,1137.5 868,1137.5 1038.2,926.2" />
			<polygon fill="#96dfff" points="769.5,926.2 599.2,1137.5 777.4,1137.5 947.7,926.2" />
		</g>

		<polygon opacity="9.999999e-002" fill="#414042" points="1038.2,926.2 217.6,926.2 183.9,926.2 183.9,958.3 183.9,1137.5 217.6,1137.5 217.6,958.3 1038.2,958.3" />
		<path fill="#d6d7e6"
			d="M 1026.5 781.7 h -7.1 H 218.2 c -12 0 -21.8 9.8 -21.8 21.8 v 23.9 v 2.7 c 0 12 9.8 21.8 21.8 21.8 H 1026.5 c 12 0 21.8 -9.8 21.8 -21.8 V 803.5 C 1048.3 791.5 1038.5 781.7 1026.5 781.7 z" />
		<g>
			<path fill="#ffffff" d="M 1008.6 792 v -21.2 H 207.3 c -12 0 -21.8 9.8 -21.8 21.8 v 23.9 h 796.3 C 981.8 816.6 1009.5 817 1008.6 792 z" />
			<path fill="#f5f5f5"
				d="M 1015.7 770.9 h -7.1 v 21.2 c 0.9 25 -26.7 24.5 -26.7 24.5 H 185.5 v 2.7 c 0 12 9.8 21.8 21.8 21.8 h 808.4 c 12 0 21.8 -9.8 21.8 -21.8 v -26.6 C 1037.5 780.7 1027.7 770.9 1015.7 770.9 z" />
		</g>
	</g>
</svg>