<?xml version="1.0" encoding="UTF-8" standalone="no"?>
<svg
   xmlns:dc="http://purl.org/dc/elements/1.1/"
   xmlns:cc="http://creativecommons.org/ns#"
   xmlns:rdf="http://www.w3.org/1999/02/22-rdf-syntax-ns#"
   xmlns:svg="http://www.w3.org/2000/svg"
   xmlns="http://www.w3.org/2000/svg"
   xmlns:sodipodi="http://sodipodi.sourceforge.net/DTD/sodipodi-0.dtd"
   xmlns:inkscape="http://www.inkscape.org/namespaces/inkscape"
   version="1.1"
   id="Layer_1"
   x="0px"
   y="0px"
   width="1135"
   height="1116"
   viewBox="0 0 1135 1116"
   enable-background="new 0 0 1568 1400"
   xml:space="preserve"
   sodipodi:docname="stove.svg"
   inkscape:version="1.0.2-2 (e86c870879, 2021-01-15)"><metadata
   id="metadata221"><rdf:RDF><cc:Work
       rdf:about=""><dc:format>image/svg+xml</dc:format><dc:type
         rdf:resource="http://purl.org/dc/dcmitype/StillImage" /><dc:title></dc:title></cc:Work></rdf:RDF></metadata><sodipodi:namedview
   pagecolor="#ffffff"
   bordercolor="#666666"
   borderopacity="1"
   objecttolerance="10"
   gridtolerance="10"
   guidetolerance="10"
   inkscape:pageopacity="0"
   inkscape:pageshadow="2"
   inkscape:window-width="1920"
   inkscape:window-height="1017"
   id="namedview219"
   showgrid="false"
   inkscape:zoom="0.37280702"
   inkscape:cx="-520.76444"
   inkscape:cy="669.21507"
   inkscape:window-x="-8"
   inkscape:window-y="-8"
   inkscape:window-maximized="1"
   inkscape:current-layer="Layer_1"
   inkscape:document-rotation="0" />
	<defs
   id="defs4">
		<style
   type="text/css"
   id="style2">
			@keyframes fire-frames {
				from {
					transform: rotate(-10deg);
				}

				to {
					transform: rotate(10deg);
				}
			}

			.fire {
				animation-name: fire-frames;
				animation-duration: 1.5s;
				animation-timing-function: linear;
				animation-direction: alternate;
				animation-iteration-count: infinite;
			}

			.fire1 {
				transform-origin: 128.1px 202.8px;
			}

			.fire2 {
				transform-origin: 155.8px 205px;
				animation-delay: 0.2s;
			}

			.fire3 {
				transform-origin: 182.6px 205.9px;
				animation-delay: 0.4s;
			}

			.fire4 {
				transform-origin: 254px 202.8px;
				animation-delay: 0.9s;
			}

			.fire5 {
				transform-origin: 226.2px 205px;
				animation-delay: 1.1s;
			}

			.fire6 {
				transform-origin: 199.5px 205.9px;
				animation-delay: 1.5s;
			}

			@keyframes bubble-frames {
				from {
					transform: unset;
				}

				to {
					transform: translateY(29px);
				}
			}

			.bubble {
				animation-name: bubble-frames;
				animation-duration: 0.8s;
				animation-timing-function: ease-in;
				animation-direction: alternate;
				animation-iteration-count: infinite;
			}

			.bubble2 {
				animation-delay: 0.3s;
				animation-duration: 0.4s;
			}

			.bubble3 {
				animation-delay: 0.3s;
			}

			.bubble4 {
				animation-delay: 0.2s;
			}

			.bubble5 {
				animation-delay: 0.8s;
				animation-duration: 0.7s;
			}
		</style>
	
		
		
		
		
		
		
		
		
		
		
	</defs>

	<g
   id="g233"><g
     id="g36"
     transform="scale(1.8)">
			<g
   class="bubble"
   id="g10">
				<path
   fill="#cfecff"
   d="m 82.9,21.7 c 0,-11.9 12.4,-21.5 27.8,-21.5 15.4,0 27.8,9.6 27.8,21.5 z"
   id="path6" />
				<path
   fill="#a8d5f2"
   d="m 94,21.7 c 0,-9.5 9.9,-17.2 22.2,-17.2 12.3,0 22.2,7.7 22.2,17.2 z"
   id="path8" />
			</g>
			<g
   class="bubble bubble2"
   id="g16">
				<path
   fill="#cfecff"
   d="m 179.4,18.2 c 0,-8 8.4,-14.5 18.7,-14.5 10.3,0 18.7,6.5 18.7,14.5 z"
   id="path12" />
				<path
   fill="#a8d5f2"
   d="m 186.9,18.2 c 0,-6.4 6.7,-11.6 15,-11.6 8.3,0 15,5.2 15,11.6 z"
   id="path14" />
			</g>
			<g
   class="bubble bubble3"
   id="g22">
				<path
   fill="#cfecff"
   d="m 223.2,18.2 c 0,-9.9 10.4,-18 23.3,-18 12.9,0 23.3,8.1 23.3,18 z"
   id="path18" />
				<path
   fill="#a8d5f2"
   d="m 232.5,18.2 c 0,-7.9 8.3,-14.4 18.6,-14.4 10.3,0 18.6,6.4 18.6,14.4 z"
   id="path20" />
			</g>
			<g
   class="bubble bubble4"
   id="g28">
				<path
   fill="#cfecff"
   d="m 147.8,20.1 c 0,-5.9 6.2,-10.8 13.9,-10.8 7.7,0 13.9,4.8 13.9,10.8 z"
   id="path24" />
				<path
   fill="#a8d5f2"
   d="m 153.4,20.1 c 0,-4.7 5,-8.6 11.1,-8.6 6.1,0 11.1,3.8 11.1,8.6 z"
   id="path26" />
			</g>
			<g
   class="bubble bubble5"
   id="g34">
				<path
   fill="#cfecff"
   d="m 275.9,20.1 c 0,-5.9 4.8,-10.8 10.7,-10.8 5.9,0 10.7,4.8 10.7,10.8 z"
   id="path30" />
				<path
   fill="#a8d5f2"
   d="m 280.2,20.1 c 0,-4.7 3.8,-8.6 8.5,-8.6 4.7,0 8.5,3.8 8.5,8.6 z"
   id="path32" />
			</g>
		</g><path
     fill="#0f75bd"
     d="M 348.3,64.12 H 116.46 v 142.2 c 0,83.52 67.68,151.2 151.2,151.2 h 80.82 80.82 c 83.52,0 151.2,-67.68 151.2,-151.2 V 64.12 Z"
     id="path38"
     style="stroke-width:1.8" /><g
     id="g44"
     transform="scale(1.8)">
			<rect
   x="40.400002"
   y="55.099998"
   fill="#e7e8ea"
   width="24.200001"
   height="17.9"
   id="rect40" />
			<path
   fill="#634e42"
   d="M 40.4,49 V 79.1 H 12.7 C 6.2,79.1 1,73.9 1,67.4 V 60.7 C 1,54.2 6.2,49 12.7,49 Z"
   id="path42" />
		</g><path
     fill="#106bac"
     d="M 586.08,65.92 H 110.52 c -9.36,0 -16.74,-7.56 -16.74,-16.74 v 0 c 0,-9.36 7.56,-16.74 16.74,-16.74 h 475.56 c 9.36,0 16.74,7.56 16.74,16.74 v 0 c 0.18,9.18 -7.38,16.74 -16.74,16.74 z"
     id="path46"
     style="stroke-width:1.8" /><path
     opacity="0.2"
     d="m 284.22,353.34 h -14.94 c -75.96,0 -97.2,-67.68 -97.2,-151.2 V 60.12 H 284.4 v 293.22 z"
     id="path48"
     style="stroke-width:1.8" /><rect
     x="284.22"
     y="60.120003"
     opacity="0.1"
     width="31.860001"
     height="293.39999"
     id="rect50"
     style="stroke-width:1.8" /><g
     id="g70"
     transform="scale(1.8)">
			<g
   id="g56">
				<path
   fill="#6d6e72"
   d="m 272.3,233.9 -38.7,1.8 c -27.8,1.3 -55.7,1.3 -83.5,0 l -38.7,-1.8 c -3.8,-0.2 -6.3,-5.3 -4.7,-9.7 l 6.3,-17.7 h 157.7 l 6.3,17.7 c 1.6,4.5 -0.9,9.6 -4.7,9.7 z"
   id="path52" />
				<path
   fill="#3a3a3c"
   d="M 271.2,206.5 H 112.6 c -2.4,0 -4.3,-1.9 -4.3,-4.3 v -1.1 c 0,-2.4 1.9,-4.3 4.3,-4.3 h 158.6 c 2.4,0 4.3,1.9 4.3,4.3 v 1.2 c 0,2.3 -1.9,4.2 -4.3,4.2 z"
   id="path54" />
			</g>
			<path
   d="m 128.2,213.8 h -2.6 c -2,0 -3.7,-1.7 -3.7,-3.7 v -3.5 h 10 v 3.5 c 0,2 -1.6,3.7 -3.7,3.7 z"
   id="path58" />
			<path
   d="m 154.2,213.8 h -2.6 c -2,0 -3.7,-1.7 -3.7,-3.7 v -3.5 h 10 v 3.5 c 0,2 -1.6,3.7 -3.7,3.7 z"
   id="path60" />
			<path
   d="m 180.2,213.8 h -2.6 c -2,0 -3.7,-1.7 -3.7,-3.7 v -3.5 h 10 v 3.5 c 0,2 -1.7,3.7 -3.7,3.7 z"
   id="path62" />
			<path
   d="m 206.2,213.8 h -2.6 c -2,0 -3.7,-1.7 -3.7,-3.7 v -3.5 h 10 v 3.5 c 0,2 -1.7,3.7 -3.7,3.7 z"
   id="path64" />
			<path
   d="m 232.2,213.8 h -2.6 c -2,0 -3.7,-1.7 -3.7,-3.7 v -3.5 h 10 v 3.5 c 0,2 -1.7,3.7 -3.7,3.7 z"
   id="path66" />
			<path
   d="m 258.2,213.8 h -2.6 c -2,0 -3.7,-1.7 -3.7,-3.7 v -3.5 h 10 v 3.5 c 0,2 -1.7,3.7 -3.7,3.7 z"
   id="path68" />
		</g><g
     id="g120"
     transform="scale(1.8)">
			<g
   class="fire fire1"
   id="g78">
				<path
   fill="#e30613"
   d="m 131.8,195.3 c 2.4,5.2 0.2,11.3 -4.9,13.8 -5.1,2.5 -11.3,0.2 -13.8,-4.9 -4.7,-10 0.2,-23.8 0.2,-23.8 0,0 14.5,6.5 18.5,14.9 z"
   id="path72" />
				<path
   fill="#ff6700"
   d="m 130.5,198.9 c 1.8,3.8 0.2,8.4 -3.7,10.2 -3.8,1.8 -8.4,0.2 -10.2,-3.7 -3.5,-7.4 0.2,-17.7 0.2,-17.7 0,0 10.8,4.9 13.7,11.2 z"
   id="path74" />
				<path
   fill="#ffc200"
   d="m 129.1,202.8 c 1.1,2.4 0.1,5.2 -2.3,6.3 -2.4,1.1 -5.2,0.1 -6.3,-2.3 -2.2,-4.6 0.1,-10.9 0.1,-10.9 0,0 6.7,3.1 8.5,6.9 z"
   id="path76" />
			</g>
			<g
   class="fire fire2"
   id="g86">
				<path
   fill="#e30613"
   d="m 161.4,198.5 c 1,5.6 -2.8,11 -8.5,11.9 -5.6,1 -11,-2.8 -11.9,-8.5 -1.8,-10.9 6.6,-22.9 6.6,-22.9 0,0 12.3,10.3 13.8,19.5 z"
   id="path80" />
				<path
   fill="#ff6700"
   d="m 159.2,201.5 c 0.7,4.2 -2.1,8.2 -6.3,8.9 -4.2,0.7 -8.2,-2.1 -8.9,-6.3 -1.4,-8.1 4.9,-17 4.9,-17 0,0 9.2,7.6 10.3,14.4 z"
   id="path82" />
				<path
   fill="#ffc200"
   d="m 156.8,205 c 0.4,2.6 -1.3,5 -3.9,5.4 -2.6,0.4 -5,-1.3 -5.4,-3.9 -0.8,-5 3,-10.4 3,-10.4 0,0 5.6,4.7 6.3,8.9 z"
   id="path84" />
			</g>
			<g
   class="fire fire3"
   id="g94">
				<path
   fill="#e30613"
   d="m 189.3,200.3 c 0,5.7 -4.7,10.3 -10.4,10.3 -5.7,0 -10.3,-4.7 -10.3,-10.4 0.1,-11 10.5,-21.4 10.5,-21.4 0,0 10.2,12.2 10.2,21.5 z"
   id="path88" />
				<path
   fill="#ff6700"
   d="m 186.6,203 c 0,4.3 -3.5,7.7 -7.7,7.6 -4.3,0 -7.7,-3.5 -7.6,-7.7 0.1,-8.2 7.8,-15.9 7.8,-15.9 0,0 7.5,9 7.5,16 z"
   id="path90" />
				<path
   fill="#ffc200"
   d="m 183.6,205.9 c 0,2.6 -2.1,4.7 -4.8,4.7 -2.6,0 -4.7,-2.1 -4.7,-4.8 0,-5 4.8,-9.8 4.8,-9.8 0,0 4.7,5.7 4.7,9.9 z"
   id="path92" />
			</g>
			<g
   class="fire fire4"
   id="g102">
				<path
   fill="#e30613"
   d="m 252.3,195.3 c -2.4,5.2 -0.2,11.3 4.9,13.8 5.2,2.4 11.3,0.2 13.8,-4.9 4.7,-10 -0.2,-23.8 -0.2,-23.8 0,0 -14.5,6.5 -18.5,14.9 z"
   id="path96" />
				<path
   fill="#ff6700"
   d="m 253.6,198.9 c -1.8,3.8 -0.2,8.4 3.7,10.2 3.8,1.8 8.4,0.2 10.2,-3.7 3.5,-7.4 -0.2,-17.7 -0.2,-17.7 0,0 -10.8,4.9 -13.7,11.2 z"
   id="path98" />
				<path
   fill="#ffc200"
   d="m 255,202.8 c -1.1,2.4 -0.1,5.2 2.3,6.3 2.4,1.1 5.2,0.1 6.3,-2.3 2.2,-4.6 -0.1,-10.9 -0.1,-10.9 0,0 -6.7,3.1 -8.5,6.9 z"
   id="path100" />
			</g>
			<g
   class="fire fire5"
   id="g110">
				<path
   fill="#e30613"
   d="m 222.6,198.5 c -1,5.6 2.8,11 8.5,11.9 5.6,1 11,-2.8 11.9,-8.5 1.8,-10.9 -6.6,-22.9 -6.6,-22.9 0,0 -12.2,10.3 -13.8,19.5 z"
   id="path104" />
				<path
   fill="#ff6700"
   d="m 224.8,201.5 c -0.7,4.2 2.1,8.2 6.3,8.9 4.2,0.7 8.2,-2.1 8.9,-6.3 1.4,-8.1 -4.9,-17 -4.9,-17 0,0 -9.1,7.6 -10.3,14.4 z"
   id="path106" />
				<path
   fill="#ffc200"
   d="m 227.2,205 c -0.4,2.6 1.3,5 3.9,5.4 2.6,0.4 5,-1.3 5.4,-3.9 0.8,-5 -3,-10.4 -3,-10.4 0,0 -5.5,4.7 -6.3,8.9 z"
   id="path108" />
			</g>
			<g
   class="fire fire6"
   id="g118">
				<path
   fill="#e30613"
   d="m 194.8,200.3 c 0,5.7 4.7,10.3 10.4,10.3 5.7,0 10.3,-4.7 10.3,-10.4 -0.1,-11 -10.5,-21.4 -10.5,-21.4 0,0 -10.3,12.2 -10.2,21.5 z"
   id="path112" />
				<path
   fill="#ff6700"
   d="m 197.5,203 c 0,4.3 3.5,7.7 7.7,7.6 4.3,0 7.7,-3.5 7.6,-7.7 -0.1,-8.2 -7.8,-15.9 -7.8,-15.9 0,0 -7.6,9 -7.5,16 z"
   id="path114" />
				<path
   fill="#ffc200"
   d="m 200.5,205.9 c 0,2.6 2.1,4.7 4.8,4.7 2.6,0 4.7,-2.1 4.7,-4.8 0,-5 -4.8,-9.8 -4.8,-9.8 0,0 -4.8,5.7 -4.7,9.9 z"
   id="path116" />
			</g>
		</g><rect
     x="581.21997"
     y="99.18"
     fill="#e7e8ea"
     width="43.560001"
     height="32.220001"
     id="rect122"
     style="stroke-width:1.8" /><path
     fill="#634e42"
     d="m 624.78,88.2 v 54.18 h 49.86 c 11.7,0 21.06,-9.36 21.06,-21.06 v -12.06 c 0,-11.7 -9.36,-21.06 -21.06,-21.06 z"
     id="path124"
     style="stroke-width:1.8" /></g>

	<g
   id="g216"
   transform="translate(0,-22)">
		<path
   fill="#dbdceb"
   d="M 1043.5,485.9 H 178.8 c -24,0 -43.6,19.6 -43.6,43.6 v 185.3 h 951.9 V 529.5 c 0,-24 -19.5,-43.6 -43.6,-43.6 z"
   id="path128" />
		<g
   id="g142">
			<path
   fill="#cdcedb"
   d="m 289.8,606.9 c 0,28.2 -22.8,51 -51,51 -28.2,0 -51,-22.8 -51,-51 0,-28.2 22.8,-51 51,-51 28.2,0 51,22.8 51,51 z"
   id="path130" />
			<circle
   fill="#cdcedb"
   cx="383.20001"
   cy="606.90002"
   r="51"
   id="circle132" />
			<path
   fill="#cdcedb"
   d="m 618,606.9 c 0,28.2 -22.8,51 -51,51 -28.2,0 -51,-22.8 -51,-51 0,-28.2 22.8,-51 51,-51 28.2,0 51,22.8 51,51 z"
   id="path134" />
			<path
   fill="#cdcedb"
   d="m 761.2,606.9 c 0,28.2 -22.8,51 -51,51 -28.2,0 -51,-22.8 -51,-51 0,-28.2 22.8,-51 51,-51 28.1,0 51,22.8 51,51 z"
   id="path136" />
			<path
   fill="#cdcedb"
   d="m 904.4,606.9 c 0,28.2 -22.8,51 -51,51 -28.2,0 -51,-22.8 -51,-51 0,-28.2 22.8,-51 51,-51 28.1,0 51,22.8 51,51 z"
   id="path138" />
			<path
   fill="#cdcedb"
   d="m 1047.5,606.9 c 0,28.2 -22.8,51 -51,51 -28.2,0 -51,-22.8 -51,-51 0,-28.2 22.8,-51 51,-51 28.2,0 51,22.8 51,51 z"
   id="path140" />
		</g>
		<path
   fill="#eeefff"
   d="m 135.2,529.5 c 0,-24 19.6,-43.6 43.6,-43.6 h 864.7 c 24,0 43.6,19.6 43.6,43.6 v 185.3 h 43.6 V 529.5 c 0,-48.2 -39,-87.2 -87.2,-87.2 H 178.8 c -48.2,0 -87.2,39 -87.2,87.2 v 185.3 h 43.6 z"
   id="path144" />
		<rect
   x="1087.1"
   y="714.79999"
   fill="#d6d7e6"
   width="43.599998"
   height="422.70001"
   id="rect146" />
		<rect
   x="91.599998"
   y="714.79999"
   fill="#d6d7e6"
   width="43.599998"
   height="422.70001"
   id="rect148" />
		<rect
   x="135.2"
   y="714.79999"
   fill="#eeefff"
   width="951.90002"
   height="422.70001"
   id="rect150" />
		<path
   fill="#afb0bd"
   d="m 283.3,600.4 c 0,28.2 -22.8,51 -51,51 -28.2,0 -51,-22.8 -51,-51 0,-28.2 22.8,-51 51,-51 28.2,0 51,22.8 51,51 z"
   id="path152" />
		<path
   fill="#eeefff"
   d="m 275.6,600.4 c 0,23.9 -19.4,43.3 -43.3,43.3 -23.9,0 -43.3,-19.4 -43.3,-43.3 0,-23.9 19.4,-43.3 43.3,-43.3 23.9,0 43.3,19.4 43.3,43.3 z"
   id="path154" />
		<rect
   x="224.10001"
   y="566.70001"
   fill="#afb0bd"
   width="16.4"
   height="67.400002"
   id="rect156" />
		<path
   fill="#afb0bd"
   d="m 427.7,600.4 c 0,28.2 -22.8,51 -51,51 -28.2,0 -51,-22.8 -51,-51 0,-28.2 22.8,-51 51,-51 28.2,0 51,22.8 51,51 z"
   id="path158" />
		<path
   fill="#eeefff"
   d="m 420,600.4 c 0,23.9 -19.4,43.3 -43.3,43.3 -23.9,0 -43.2,-19.4 -43.2,-43.3 0,-23.9 19.4,-43.3 43.3,-43.3 23.9,0 43.2,19.4 43.2,43.3 z"
   id="path160" />
		<rect
   x="368.5"
   y="566.70001"
   fill="#afb0bd"
   width="16.4"
   height="67.400002"
   id="rect162" />
		<path
   fill="#afb0bd"
   d="m 611.5,600.4 c 0,28.2 -22.8,51 -51,51 -28.2,0 -51,-22.8 -51,-51 0,-28.2 22.8,-51 51,-51 28.2,0 51,22.8 51,51 z"
   id="path164" />
		<path
   fill="#eeefff"
   d="m 603.8,600.4 c 0,23.9 -19.4,43.3 -43.3,43.3 -23.9,0 -43.3,-19.4 -43.3,-43.3 0,-23.9 19.4,-43.3 43.3,-43.3 23.9,0 43.3,19.4 43.3,43.3 z"
   id="path166" />
		<rect
   x="552.29999"
   y="566.70001"
   fill="#afb0bd"
   width="16.4"
   height="67.400002"
   id="rect168" />
		<path
   fill="#afb0bd"
   d="m 754.7,600.4 c 0,28.2 -22.8,51 -51,51 -28.2,0 -51,-22.8 -51,-51 0,-28.2 22.8,-51 51,-51 28.1,0 51,22.8 51,51 z"
   id="path170" />
		<path
   fill="#eeefff"
   d="m 746.9,600.4 c 0,23.9 -19.4,43.3 -43.3,43.3 -23.9,0 -43.3,-19.4 -43.3,-43.3 0,-23.9 19.4,-43.3 43.3,-43.3 24,0 43.3,19.4 43.3,43.3 z"
   id="path172" />
		<rect
   x="695.5"
   y="566.70001"
   fill="#afb0bd"
   width="16.4"
   height="67.400002"
   id="rect174" />
		<path
   fill="#afb0bd"
   d="m 897.9,600.4 c 0,28.2 -22.8,51 -51,51 -28.2,0 -51,-22.8 -51,-51 0,-28.2 22.8,-51 51,-51 28.1,0 51,22.8 51,51 z"
   id="path176" />
		<path
   fill="#eeefff"
   d="m 890.1,600.4 c 0,23.9 -19.4,43.3 -43.3,43.3 -23.9,0 -43.3,-19.4 -43.3,-43.3 0,-23.9 19.4,-43.3 43.3,-43.3 24,0 43.3,19.4 43.3,43.3 z"
   id="path178" />
		<rect
   x="838.70001"
   y="566.70001"
   fill="#afb0bd"
   width="16.4"
   height="67.400002"
   id="rect180" />
		<path
   fill="#afb0bd"
   d="m 1041,600.4 c 0,28.2 -22.8,51 -51,51 -28.2,0 -51,-22.8 -51,-51 0,-28.2 22.8,-51 51,-51 28.2,0 51,22.8 51,51 z"
   id="path182" />
		<path
   fill="#eeefff"
   d="m 1033.3,600.4 c 0,23.9 -19.4,43.3 -43.3,43.3 -23.9,0 -43.3,-19.4 -43.3,-43.3 0,-23.9 19.4,-43.3 43.3,-43.3 23.9,0 43.3,19.4 43.3,43.3 z"
   id="path184" />
		<rect
   x="981.79999"
   y="566.70001"
   fill="#afb0bd"
   width="16.4"
   height="67.400002"
   id="rect186" />

		<path
   fill="#6d6e71"
   d="M 1013.2,403.6 H 737.3 c -15.4,0 -27.8,12.5 -27.8,27.8 v 10.9 h 13.9 v -10.8 c 0,-7.7 6.2,-13.9 13.9,-13.9 H 875 v 24.8 h 13.6 v -24.8 h 124.6 c 7.7,0 13.9,6.2 13.9,13.9 v 10.9 h 13.9 v -10.9 c 0,-15.4 -12.4,-27.9 -27.8,-27.9 z"
   id="path188" />
		<g
   id="g204">
			<polygon
   fill="#96dfff"
   points="444.3,926.2 274,1137.5 435.5,1137.5 605.8,926.2 "
   id="polygon190" />
			<polygon
   fill="#c4eeff"
   points="605.8,926.2 435.5,1137.5 599.2,1137.5 769.5,926.2 "
   id="polygon192" />
			<polygon
   fill="#96dfff"
   points="183.9,926.2 183.9,1137 353.7,926.2 "
   id="polygon194" />
			<polygon
   fill="#c4eeff"
   points="183.9,1137.5 274,1137.5 444.3,926.2 353.7,926.2 183.9,1137 "
   id="polygon196" />
			<polygon
   fill="#96dfff"
   points="868,1137.5 1039.2,1137.5 1039.2,926.2 1038.2,926.2 "
   id="polygon198" />
			<polygon
   fill="#c4eeff"
   points="947.7,926.2 777.4,1137.5 868,1137.5 1038.2,926.2 "
   id="polygon200" />
			<polygon
   fill="#96dfff"
   points="769.5,926.2 599.2,1137.5 777.4,1137.5 947.7,926.2 "
   id="polygon202" />
		</g>

		<polygon
   opacity="0.1"
   fill="#414042"
   points="183.9,1137.5 217.6,1137.5 217.6,958.3 1038.2,958.3 1038.2,926.2 217.6,926.2 183.9,926.2 183.9,958.3 "
   id="polygon206" />
		<path
   fill="#d6d7e6"
   d="m 1026.5,781.7 h -7.1 -801.2 c -12,0 -21.8,9.8 -21.8,21.8 v 23.9 2.7 c 0,12 9.8,21.8 21.8,21.8 h 808.3 c 12,0 21.8,-9.8 21.8,-21.8 v -26.6 c 0,-12 -9.8,-21.8 -21.8,-21.8 z"
   id="path208" />
		<g
   id="g214">
			<path
   fill="#ffffff"
   d="M 1008.6,792 V 770.8 H 207.3 c -12,0 -21.8,9.8 -21.8,21.8 v 23.9 h 796.3 c 0,0.1 27.7,0.5 26.8,-24.5 z"
   id="path210" />
			<path
   fill="#f5f5f5"
   d="m 1015.7,770.9 h -7.1 v 21.2 c 0.9,25 -26.7,24.5 -26.7,24.5 H 185.5 v 2.7 c 0,12 9.8,21.8 21.8,21.8 h 808.4 c 12,0 21.8,-9.8 21.8,-21.8 v -26.6 c 0,-12 -9.8,-21.8 -21.8,-21.8 z"
   id="path212" />
		</g>
	</g>
</svg>
